<svg width="92" height="94" viewBox="0 0 92 94" fill="none" xmlns="http://www.w3.org/2000/svg">
<path d="M28.6867 93.1959C19.3575 75.0477 15.5966 45.3998 34.9803 55.9106C46.1989 61.9938 36.5769 72.1667 27.7908 66.7567C12.9325 57.6079 9.24955 35.5188 30.9554 36.2754" stroke="#C1B9B0" stroke-dasharray="4 4"/>
<path fill-rule="evenodd" clip-rule="evenodd" d="M28.9566 51.194C30.2017 52.2245 31.8682 52.5896 33.4302 52.174L86.2757 38.1133C88.9475 37.4023 90.5352 34.6579 89.8197 31.9873L82.6396 5.19091C81.9258 2.52689 79.1896 0.943963 76.5243 1.65312L23.6726 15.7156C22.1047 16.1327 20.8367 17.2847 20.2715 18.8055L14.3461 34.7487C13.6051 36.7423 14.2064 38.9865 15.8449 40.3425L28.9566 51.194ZM27.8874 34.2302C27.385 32.3552 25.6017 31.2038 23.9043 31.6587C22.2069 32.1135 21.2382 34.0022 21.7406 35.8772C22.2431 37.7523 24.0264 38.9036 25.7237 38.4488C27.4211 37.994 28.3899 36.1053 27.8874 34.2302Z" fill="#9E9080"/>
<path d="M33.3065 26.1573L36.0241 36.2995L42.7586 34.495C43.1823 34.3815 43.5572 34.194 43.8834 33.9327C44.2185 33.669 44.4884 33.3599 44.693 33.0056C44.8976 32.6512 45.0315 32.2675 45.0947 31.8544C45.1556 31.4323 45.1292 31.0093 45.0157 30.5856C44.9142 30.207 44.7545 29.8633 44.5365 29.5545C44.3185 29.2457 44.0572 28.992 43.7528 28.7934C43.9147 28.4601 44.0141 28.1098 44.0509 27.7424C44.0853 27.366 44.0518 26.9885 43.9504 26.6099C43.8368 26.1861 43.6494 25.8112 43.3881 25.4851C43.1244 25.1499 42.8153 24.88 42.4609 24.6754C42.1066 24.4708 41.7183 24.3381 41.2962 24.2773C40.8831 24.2141 40.4647 24.2392 40.041 24.3528L33.3065 26.1573ZM42.5858 30.2801L43.0605 32.0516L37.6513 33.501L37.1766 31.7295L42.5858 30.2801ZM36.5824 29.5117L36.1149 27.7673L41.5241 26.3179L41.9915 28.0623L36.5824 29.5117ZM51.9766 27.7493L51.3787 25.5181L48.025 26.4167L47.5685 24.7128L54.5734 22.8358L53.9791 20.6181L44.743 23.0929L47.4606 33.2351L56.6832 30.7639L56.0853 28.5326L49.094 30.4059L48.6229 28.648L51.9766 27.7493ZM58.1191 21.8568L65.4891 19.882L64.8985 17.6777L58.4075 19.417C57.9837 19.5305 57.6043 19.7192 57.2691 19.9829C56.943 20.2442 56.6776 20.5521 56.473 20.9064C56.2684 21.2608 56.1357 21.649 56.0749 22.0711C56.0141 22.4933 56.0405 22.9162 56.154 23.3399C56.2675 23.7636 56.4562 24.1431 56.7199 24.4782C56.9812 24.8044 57.289 25.0697 57.6434 25.2743C57.9978 25.4789 58.3815 25.6128 58.7946 25.6761C59.2167 25.7369 59.6397 25.7105 60.0634 25.597L64.6071 24.3795L65.0818 26.151L57.6982 28.1294L58.2889 30.3337L64.7799 28.5944C65.2036 28.4809 65.583 28.2922 65.9182 28.0285C66.2534 27.7648 66.5232 27.4557 66.7278 27.1014C66.9324 26.747 67.0663 26.3633 67.1296 25.9502C67.1904 25.528 67.164 25.1051 67.0505 24.6814C66.9369 24.2577 66.7495 23.8828 66.4882 23.5566C66.2245 23.2214 65.9154 22.9516 65.5611 22.747C65.2067 22.5424 64.8185 22.4097 64.3963 22.3489C63.9742 22.288 63.5513 22.3144 63.1276 22.4279L58.5974 23.6418L58.1191 21.8568ZM76.0868 17.0713L75.489 14.84L66.3069 17.3004L66.9047 19.5317L70.3801 18.6004L72.5035 26.5249L74.7213 25.9306L72.5979 18.0062L76.0868 17.0713Z" fill="white"/>
</svg>
