<svg width="19" height="19" viewBox="0 0 19 19" fill="none" xmlns="http://www.w3.org/2000/svg">
<path d="M17.8914 3.17051L15.4993 0.780664C15.3306 0.611182 15.13 0.476709 14.9091 0.384971C14.6883 0.293232 14.4515 0.246036 14.2123 0.246094C13.7249 0.246094 13.2667 0.437012 12.923 0.780664L10.349 3.35469C10.1795 3.52343 10.0451 3.72399 9.95333 3.94486C9.86159 4.16572 9.8144 4.40254 9.81445 4.6417C9.81445 5.1291 10.0054 5.5873 10.349 5.93096L12.2313 7.81318C11.7907 8.7843 11.1781 9.66776 10.4231 10.4209C9.67008 11.1777 8.7867 11.7925 7.81543 12.2357L5.9332 10.3535C5.76446 10.184 5.5639 10.0496 5.34303 9.95782C5.12217 9.86608 4.88535 9.81889 4.64619 9.81895C4.15879 9.81895 3.70059 10.0099 3.35694 10.3535L0.780665 12.9253C0.610975 13.0943 0.476387 13.2953 0.384644 13.5165C0.292901 13.7378 0.245815 13.975 0.246095 14.2146C0.246095 14.702 0.437013 15.1602 0.780665 15.5038L3.16826 17.8914C3.71631 18.4417 4.47324 18.7539 5.25039 18.7539C5.41436 18.7539 5.57158 18.7404 5.72656 18.7135C8.7543 18.2148 11.7573 16.6044 14.1809 14.1831C16.6021 11.7641 18.2104 8.76328 18.7157 5.72656C18.8685 4.79893 18.5607 3.84434 17.8914 3.17051Z" fill="#9E9080"/>
</svg>
