<svg width="32" height="25" viewBox="0 0 32 25" fill="none" xmlns="http://www.w3.org/2000/svg">
<g clip-path="url(#clip0)">
<path d="M8.9807 16.4292L12.7332 13.3263L0.00206375 7.71484C0.00206375 7.71484 1.44533 5.94251 3.01014 6.63508C4.22552 7.16951 11.8217 10.0325 15.2095 11.3086L19.1848 8.05839C18.562 7.20768 18.3088 6.17701 18.405 5.12997C18.5215 3.81027 19.1899 2.49603 20.3344 1.54716C22.4005 -0.143367 25.2415 0.0529514 26.6746 1.96706C27.3127 2.81777 27.5609 3.86481 27.4697 4.91729C27.3532 6.23154 26.5886 7.43672 25.5403 8.49466C24.4161 9.62894 17.9745 12.5737 17.9745 12.5737C17.9745 12.5737 25.834 13.9207 27.4039 14.5424C30.6753 15.8457 32.6148 18.8723 31.8299 21.4408C31.7185 21.8062 31.5514 22.1388 31.3387 22.4496C30.0777 24.2656 27.2975 24.7782 24.573 23.6985C21.3016 22.3897 19.352 19.3631 20.147 16.8C20.1622 16.7346 20.1875 16.6855 20.2129 16.6255L15.7463 14.6569C15.0019 15.1913 14.374 15.6494 13.3105 16.4183L8.9807 16.4292ZM24.1426 6.62963C24.7908 6.08975 25.2212 5.32629 25.2871 4.56828C25.3175 4.23563 25.2972 3.75029 24.9883 3.34674C24.335 2.47967 22.8462 2.51239 21.7321 3.42309C21.0687 3.95751 20.6585 4.70462 20.5876 5.47353C20.5572 5.80618 20.5876 6.29152 20.8864 6.69507C21.5397 7.5676 23.0285 7.54033 24.1426 6.62963ZM25.2364 21.5335C27.1557 22.297 29.2067 21.8389 29.6068 20.5574C30.0119 19.2486 28.6952 17.4817 26.7354 16.7019C25.044 16.0311 23.2564 16.2711 22.5778 17.2527C22.4866 17.3835 22.4157 17.5308 22.3651 17.678C21.96 18.9868 23.2766 20.7482 25.2364 21.5335Z" fill="#9E9080"/>
</g>
<defs>
<clipPath id="clip0">
<rect width="32" height="25" fill="white" transform="matrix(-1 0 0 1 32 0)"/>
</clipPath>
</defs>
</svg>
