<svg width="32" height="1942" viewBox="0 0 32 1942" fill="none" xmlns="http://www.w3.org/2000/svg">
<line x1="16.5" y1="1926" x2="16.5001" y2="20" stroke="#C1B9B0" stroke-dasharray="8 8"/>
<g clip-path="url(#clip0)">
<path d="M15.5718 1918.98L18.6747 1922.73L24.2861 1910C24.2861 1910 26.0585 1911.44 25.3659 1913.01C24.8315 1914.22 21.9685 1921.82 20.6924 1925.21L23.9426 1929.18C24.7933 1928.56 25.824 1928.31 26.871 1928.4C28.1907 1928.52 29.5049 1929.19 30.4538 1930.33C32.1443 1932.4 31.948 1935.24 30.0339 1936.67C29.1832 1937.31 28.1362 1937.56 27.0837 1937.47C25.7694 1937.35 24.5643 1936.59 23.5063 1935.54C22.372 1934.42 19.4273 1927.97 19.4273 1927.97C19.4273 1927.97 18.0803 1935.83 17.4586 1937.4C16.1553 1940.67 13.1287 1942.61 10.5602 1941.83C10.1948 1941.72 9.86217 1941.55 9.55133 1941.34C7.73538 1940.08 7.22277 1937.3 8.30252 1934.57C9.61131 1931.3 12.6379 1929.35 15.2009 1930.15C15.2664 1930.16 15.3155 1930.19 15.3755 1930.21L17.3441 1925.75C16.8097 1925 16.3516 1924.37 15.5827 1923.31L15.5718 1918.98ZM25.3713 1934.14C25.9112 1934.79 26.6747 1935.22 27.4327 1935.29C27.7653 1935.32 28.2507 1935.3 28.6542 1934.99C29.5213 1934.33 29.4886 1932.85 28.5779 1931.73C28.0435 1931.07 27.2964 1930.66 26.5274 1930.59C26.1948 1930.56 25.7095 1930.59 25.3059 1930.89C24.4334 1931.54 24.4606 1933.03 25.3713 1934.14ZM10.4675 1935.24C9.70402 1937.15 10.1621 1939.21 11.4436 1939.61C12.7524 1940.01 14.5193 1938.69 15.2991 1936.73C15.9699 1935.04 15.7299 1933.26 14.7483 1932.58C14.6174 1932.49 14.4702 1932.41 14.323 1932.36C13.0142 1931.96 11.2528 1933.28 10.4675 1935.24Z" fill="#F9F2EA"/>
</g>
<g clip-path="url(#clip1)">
<path d="M16.4282 23.0203L13.3253 19.2678L7.71386 31.9989C7.71386 31.9989 5.94154 30.5556 6.63411 28.9908C7.16853 27.7755 10.0315 20.1793 11.3076 16.7914L8.05742 12.8161C7.2067 13.439 6.17603 13.6922 5.129 13.596C3.8093 13.4795 2.49505 12.8111 1.54618 11.6666C-0.144344 9.60043 0.0519748 6.75947 1.96608 5.32634C2.8168 4.68826 3.86383 4.44012 4.91632 4.53127C6.23056 4.64775 7.43574 5.41243 8.49368 6.46069C9.62797 7.58492 12.5727 14.0264 12.5727 14.0264C12.5727 14.0264 13.9197 6.16697 14.5414 4.59711C15.8447 1.3257 18.8713 -0.613845 21.4398 0.171089C21.8052 0.282499 22.1378 0.449614 22.4487 0.662306C24.2646 1.92327 24.7772 4.70345 23.6975 7.42793C22.3887 10.6993 19.3621 12.649 16.7991 11.854C16.7336 11.8388 16.6845 11.8134 16.6245 11.7881L14.6559 16.2546C15.1903 16.9991 15.6484 17.627 16.4173 18.6905L16.4282 23.0203ZM6.62865 7.85838C6.08878 7.21018 5.32531 6.77973 4.56731 6.7139C4.23465 6.68351 3.74931 6.70377 3.34577 7.01268C2.47869 7.66595 2.51141 9.15479 3.42211 10.2689C3.95654 10.9323 4.70364 11.3425 5.47255 11.4134C5.8052 11.4438 6.29055 11.4134 6.69409 11.1146C7.56662 10.4613 7.53935 8.97248 6.62865 7.85838ZM21.5325 6.76454C22.296 4.84525 21.8379 2.79429 20.5564 2.39423C19.2476 1.9891 17.4807 3.30576 16.7009 5.26557C16.0301 6.95697 16.2701 8.7446 17.2517 9.42319C17.3826 9.51434 17.5298 9.58524 17.677 9.63588C18.9858 10.041 20.7472 8.72434 21.5325 6.76454Z" fill="#F9F2EA"/>
</g>
<defs>
<clipPath id="clip0">
<rect width="32" height="25" fill="white" transform="matrix(1.19249e-08 -1 -1 -1.19249e-08 32 1942)"/>
</clipPath>
<clipPath id="clip1">
<rect width="32" height="25" fill="white" transform="matrix(-1.19249e-08 1 1 1.19249e-08 0 0)"/>
</clipPath>
</defs>
</svg>
