<svg width="48" height="70" viewBox="0 0 48 70" fill="none" xmlns="http://www.w3.org/2000/svg">
<path d="M10.9462 26.847C10.9594 26.8576 10.9594 26.8869 10.97 26.9055C11.1052 27.2007 11.5958 27.3283 11.8212 27.1102C12.1341 26.8098 12.4417 26.504 12.7148 26.1689C12.8421 26.0147 12.9587 25.9429 13.1391 25.9801C13.3963 26.0333 13.4811 25.9243 13.5209 25.677C13.5845 25.2701 13.733 24.9217 14.2183 24.8499C14.3774 24.826 14.4914 24.6904 14.5524 24.5362C14.8175 23.8661 15.1198 23.1933 15.1331 22.4673C15.1543 21.3718 15.4221 20.356 15.9259 19.3933C16.0426 19.1726 16.0347 18.9599 15.9206 18.7551C15.7721 18.4892 15.7032 18.21 15.674 17.9095C15.6369 17.5239 15.4486 17.2314 15.0748 17.0852C14.4596 16.8432 13.8311 16.6517 13.1603 16.7102C12.264 16.79 11.3837 16.9629 10.5458 17.2979C9.76087 17.6117 9.326 18.3483 9.4029 19.1806C9.41881 19.3508 9.42676 19.521 9.37638 19.6858C9.326 19.8454 9.34986 19.997 9.4029 20.1512C9.50631 20.4623 9.62563 20.7681 9.76087 21.0686C9.9783 21.5499 10.2885 21.8876 10.8666 21.8584C11.0177 21.8504 11.0893 21.9116 11.1159 22.0711C11.1848 22.47 11.1875 22.8503 10.9621 23.2092C10.795 23.4752 10.7181 23.7677 10.7075 24.0841C10.6969 24.4245 10.6677 24.7622 10.6492 25.1026C10.6518 25.1026 10.6518 25.1026 10.6545 25.1026C10.6465 25.2302 10.6359 25.3579 10.6306 25.4828C10.6173 25.9668 10.445 26.4827 10.9462 26.847Z" fill="white"/>
<path d="M24.3997 54.8454C24.3997 54.6007 24.3069 54.5502 24.1054 54.5768C23.9384 54.5981 23.7315 54.4944 23.7395 54.8374C23.7633 55.9117 23.7474 56.9833 23.7474 58.0577C23.7474 59.1107 23.758 60.1637 23.7395 61.2141C23.7342 61.4906 23.8429 61.5199 24.0656 61.5119C24.2672 61.5039 24.405 61.5252 24.4024 61.2247C24.3838 59.0974 24.3891 56.9727 24.3997 54.8454Z" fill="white"/>
<path d="M33.9599 36.6859C33.7292 36.6779 33.6205 36.7205 33.6284 36.9917C33.647 37.723 33.6337 38.4569 33.6337 39.1882C33.6337 39.1882 33.6337 39.1882 33.6364 39.1882C33.6364 39.9407 33.6523 40.6959 33.6284 41.4485C33.6178 41.7383 33.7796 41.7038 33.944 41.6905C34.0925 41.6772 34.3099 41.7942 34.3072 41.4644C34.294 39.9673 34.294 38.4702 34.3099 36.9731C34.3125 36.6753 34.1667 36.6939 33.9599 36.6859Z" fill="white"/>
<path d="M34.4981 35.1728C34.4981 34.8803 34.2754 34.649 33.9837 34.641C33.6947 34.633 33.4507 34.8617 33.4454 35.1463C33.4401 35.4388 33.6893 35.6967 33.981 35.694C34.2674 35.694 34.4981 35.4627 34.4981 35.1728Z" fill="white"/>
<path d="M47.8888 17.5346C47.7642 17.4708 47.5971 17.6835 47.4937 17.4761C47.2444 17.4282 47.0217 17.5239 46.7937 17.6011C46.7035 17.7181 46.5683 17.6011 46.4675 17.6649C46.4145 17.6702 46.3615 17.6729 46.3111 17.6835C42.1321 18.5743 37.9611 19.5024 33.8378 20.6325C30.2262 21.6244 26.6704 22.7918 23.1516 24.0735C22.0989 24.4564 21.0383 24.8154 20.0068 25.2541C19.8371 25.2701 19.7973 25.4749 19.6356 25.5041C19.5905 25.6238 19.5109 25.6876 19.3704 25.6477C19.5109 25.6663 19.5931 25.5998 19.6409 25.4802C19.6011 25.411 19.5481 25.4137 19.4871 25.4456C19.4261 25.4616 19.3651 25.4722 19.3041 25.4935C17.7158 26.0492 16.1831 26.7459 14.6319 27.3974C13.9054 27.7006 13.1629 27.9585 12.3568 27.8681C11.861 27.8123 11.3863 27.9479 10.9143 28.0516C10.6545 28.1074 10.3124 28.2085 10.1904 28.4026C9.9836 28.7377 9.68926 29.0036 9.50365 29.3333C9.31008 29.6737 9.04492 29.8784 8.72407 30.038C8.20169 30.2959 7.68993 30.5725 7.20203 30.8916C6.10425 31.6069 4.99586 32.3063 4.07309 33.2609C3.82384 33.5189 3.74164 33.7848 3.8477 34.1251C3.91134 34.3246 4.0068 34.524 3.93786 34.7447C3.85035 35.0293 3.99354 35.0293 4.19772 34.9654C4.34886 34.9202 4.5 34.8564 4.60342 35.0559C4.73865 35.3191 4.95609 35.3617 5.22125 35.2712C5.36974 35.2207 5.52619 35.1835 5.67733 35.1409C5.77279 35.0638 5.88416 35.0346 6.00083 35.0133C6.07508 34.9415 6.15198 34.9176 6.24744 34.9761C6.22622 35.0665 6.14402 35.0665 6.08038 35.0957C6.01409 35.1835 5.89477 35.1436 5.81522 35.2021C5.33792 35.4893 4.85267 35.7605 4.38864 36.0663C3.87687 36.4041 3.37836 36.763 2.88516 37.1273C2.76318 37.2178 2.61999 37.3614 2.69424 37.5262C2.76583 37.6831 2.95145 37.6299 3.09729 37.6193C3.5242 37.5847 3.92725 37.473 4.31439 37.2896C4.45493 37.2231 4.64054 37.1247 4.74926 37.2816C4.86063 37.4411 4.94548 37.3906 5.06215 37.3374C5.48376 37.1406 5.90272 36.9439 6.32433 36.7471C6.33759 36.7338 6.3535 36.7258 6.36941 36.7232C6.39593 36.7099 6.42244 36.6939 6.44896 36.6806C6.5126 36.6221 6.6001 36.5663 6.66639 36.6354C6.72473 36.6966 6.64518 36.7338 6.58685 36.7551C6.54707 36.779 6.50464 36.8029 6.46487 36.8295C6.25009 36.9731 6.0353 37.1194 5.82052 37.263C5.83643 37.3268 5.96371 37.3826 5.83908 37.4597C5.77544 37.5767 5.66407 37.6352 5.55271 37.6991C5.27163 37.8586 4.9773 37.9942 4.73865 38.2176C4.78373 38.2415 4.83146 38.2681 4.87654 38.2921C4.92162 38.2681 4.96404 38.2362 5.01177 38.2203C6.26865 37.7788 7.52818 37.3374 8.78771 36.9013C8.87786 36.8694 8.97332 36.8561 9.06878 36.8455C9.40819 36.8082 9.54873 36.9332 9.53017 37.2736C9.51426 37.606 9.38698 37.9145 9.27561 38.2229C9.02901 38.917 8.83013 39.611 8.8646 40.3662C8.93885 42.0787 9.09795 43.7806 9.34985 45.4745C9.45327 46.1712 9.57524 46.8572 10.0075 47.4476C10.1188 47.6018 10.1507 47.7986 10.1586 47.9927C10.2355 49.7797 10.4238 51.5507 10.848 53.2898C11.0071 53.9439 11.0814 54.6247 11.4791 55.1991C11.7655 55.4437 12.089 55.3639 12.2561 55.0076C12.2985 54.8374 12.3409 54.6672 12.3833 54.4971C12.5186 54.2391 12.5583 53.9572 12.5769 53.67C12.6299 52.7978 12.4364 51.9416 12.3833 51.0774C12.3489 50.487 12.6352 49.9765 12.6458 49.4047C12.6485 49.2532 12.8155 49.0803 12.7917 48.8809C12.7864 48.8277 12.7864 48.7719 12.8447 48.7453C13.2372 48.5565 13.2398 48.1948 13.2133 47.8438C13.1656 47.1843 13.2027 46.5275 13.2902 45.8734C13.3618 45.3415 13.3803 44.7884 13.6402 44.2991C14.0618 43.5094 14.4384 42.7063 14.6584 41.8261C14.8626 41.0151 15.035 40.196 15.2789 39.3956C15.5335 38.5633 15.4327 37.6618 15.7668 36.8402C15.788 36.787 15.7615 36.7152 15.7589 36.6514C15.7827 36.6567 15.8013 36.646 15.8093 36.6248C15.918 36.4971 15.9259 36.3402 15.9498 36.186C16.0956 35.8589 16.1725 35.5159 16.1937 35.1569C16.199 35.0505 16.1937 34.9415 16.3051 34.8857C16.6233 34.7261 16.9017 34.5214 17.0794 34.2023C17.2226 34.1996 17.2968 34.0906 17.3949 34.0108C17.4427 33.9895 17.493 33.9736 17.5381 33.9443C18.7022 33.1678 19.9007 32.4552 21.208 31.9446C21.2981 31.9101 21.4042 31.8755 21.4387 31.7877C21.5819 31.4234 21.9292 31.349 22.2315 31.2054C23.2418 30.7241 24.3555 30.5034 25.3339 29.9343C25.676 29.7349 26.0791 29.6365 26.4503 29.4875C27.3147 29.1419 28.1579 28.7456 29.0648 28.517C29.1788 28.4877 29.2875 28.4505 29.2716 28.2564C28.3568 28.517 27.4261 28.5967 26.5007 28.743C26.7446 28.4319 27.0973 28.3813 27.4234 28.2776C27.6276 28.2138 27.8397 28.1686 27.967 27.9771C28.0757 27.8123 28.2295 27.7378 28.4125 27.7059C29.566 27.5038 30.6213 27.0065 31.7191 26.6289C31.7483 26.5385 31.8968 26.6343 31.91 26.488C31.7403 26.4268 31.5733 26.4215 31.4115 26.5199C31.385 26.5359 31.3691 26.5784 31.3293 26.5545C31.3267 26.5545 31.3399 26.5173 31.3346 26.496C31.316 26.4215 31.3744 26.4508 31.4062 26.4428C31.5945 26.4003 31.8066 26.5146 31.9816 26.363C32.2203 26.2274 32.4775 26.1583 32.7453 26.1104C32.9521 26.0732 33.1536 26.0173 33.2517 25.7993C33.326 25.677 33.4612 25.7062 33.5699 25.6637C33.493 25.4749 33.3499 25.5839 33.2279 25.5839C32.9335 25.6185 32.6366 25.6318 32.3449 25.6876C31.0986 25.9269 29.855 26.1795 28.6087 26.4295C28.5106 26.48 28.4098 26.4534 28.3091 26.4428C28.2561 26.4428 28.2136 26.4907 28.1553 26.48C28.2295 26.4641 28.2905 26.4162 28.3489 26.3657C29.5076 25.9748 30.6664 25.5839 31.8252 25.1956C32.0187 25.1318 32.2229 25.0627 32.3157 24.8712C32.4801 24.5255 32.793 24.5069 33.1377 24.4271C32.9892 24.6532 33.0529 24.6824 33.2491 24.6213C33.5408 24.5309 33.8378 24.4591 34.1347 24.3766C34.1321 24.2224 33.9862 24.3022 33.9226 24.2437C33.8431 24.2304 33.7688 24.2463 33.7476 24.2543C33.851 23.9325 34.1719 24.1559 34.4026 24.0655C34.5272 24.1027 34.5749 23.9964 34.6439 23.9325C34.734 23.7996 34.7075 23.6294 34.7817 23.4885C34.8507 23.4034 34.9514 23.3715 35.0496 23.3316C35.5958 23.1162 36.142 22.8928 36.6856 22.6721C36.7917 22.5631 36.9402 22.5764 37.0701 22.5312C37.8576 22.2918 38.6531 22.0764 39.4274 21.8052C40.5278 21.4196 41.7317 21.409 42.7897 20.8772C42.8189 20.824 42.8401 20.7628 42.9143 20.7548C43.0098 20.7336 43.1052 20.7096 43.1715 20.6272C43.4871 20.5581 43.8053 20.4889 44.1208 20.4171C44.0413 20.2416 43.9034 20.3506 43.7867 20.3506C43.6568 20.3214 43.5162 20.3932 43.3784 20.3134C43.4208 20.1273 43.5613 20.098 43.7151 20.09C44.0439 20.0688 44.3621 19.9943 44.683 19.9252C45.2398 19.8055 45.7542 19.5396 46.3376 19.5024C46.4914 19.4917 46.7247 19.38 46.86 19.162C46.5603 19.1088 46.2978 19.1354 46.0353 19.1354C45.7516 19.1354 45.4652 19.17 45.1974 19.0343C45.1337 18.8934 45.3087 18.9519 45.3247 18.8801C45.977 18.6089 46.6717 18.4493 47.3028 18.1249C47.499 18.0159 47.6952 17.9069 47.9021 17.8191C47.9736 17.7101 48.0903 17.6144 47.8888 17.5346ZM5.10988 35.0931C5.00116 35.1409 4.90571 35.2473 4.79699 35.0745C4.91896 35.0798 5.01442 35.0851 5.10723 35.0878C5.23716 34.9973 5.33527 35.0372 5.43338 35.0745C5.33262 35.0798 5.22921 35.0851 5.10988 35.0931ZM5.147 35.8323C5.15231 35.702 5.23716 35.6994 5.31141 35.6781C5.31936 35.8031 5.25042 35.8244 5.147 35.8323ZM5.95575 36.7338C5.93985 36.7072 5.92394 36.6806 5.90803 36.6514C5.98492 36.5875 6.06712 36.537 6.2766 36.5742C6.12281 36.6514 6.04061 36.6939 5.95575 36.7338ZM6.62397 36.912C6.64783 36.8242 6.69291 36.7737 6.81754 36.7657C6.7592 36.8561 6.72473 36.9199 6.62397 36.912Z" fill="white"/>
<path d="M40.3769 46.7083C40.2019 46.703 40.1595 46.7615 40.1701 46.9237C40.1834 47.1179 40.1728 47.312 40.1728 47.6071C39.4966 46.8067 38.7197 46.477 37.7942 46.6392C36.8715 46.8014 36.19 47.3093 35.8426 48.2134C35.6782 48.4953 35.6252 48.8011 35.6544 49.1255C35.6544 49.1681 35.6544 49.2106 35.6544 49.2532C35.6358 49.4367 35.6331 49.6175 35.7127 49.7877C35.7153 49.8515 35.7047 49.9206 35.726 49.9765C36.5055 52.0533 38.9901 52.1543 40.0084 50.9497C40.0455 50.9045 40.0773 50.8114 40.1754 50.846C40.1781 50.9311 40.1834 51.0162 40.186 51.1013C40.1409 51.5959 40.133 52.0985 39.7989 52.5133C39.7061 52.5931 39.6133 52.6729 39.5231 52.7526C39.486 52.7766 39.4515 52.8032 39.4144 52.8271C39.3136 52.8431 39.2261 52.8829 39.1492 52.9468C38.3962 53.1356 37.6564 53.1329 36.9537 52.7526C36.8025 52.6011 36.6514 52.4522 36.5002 52.3006C36.3968 51.9655 36.1184 52.1464 35.9169 52.1091C35.7604 52.0799 35.6915 52.1224 35.7869 52.2926C35.9407 52.5692 36.0972 52.8431 36.3517 53.0451C37.2745 53.7764 38.306 53.811 39.3693 53.4786C40.0879 53.2526 40.5334 52.734 40.719 52.0001C40.7959 51.689 40.8224 51.3725 40.8224 51.0534C40.8251 49.7478 40.8304 48.4421 40.8251 47.1338C40.8224 46.6498 40.9258 46.727 40.3769 46.7083ZM36.3438 52.992C36.3464 53.0079 36.3464 53.0265 36.3491 53.0425C36.3385 53.0239 36.3385 53.0079 36.3438 52.992ZM38.2477 51.1013C37.0889 51.1013 36.2881 50.3301 36.2908 49.2186C36.2934 48.1018 37.1844 47.2189 38.298 47.2269C39.4038 47.2375 40.1993 48.0592 40.1966 49.1867C40.1913 50.3514 39.4276 51.1013 38.2477 51.1013Z" fill="white"/>
<path d="M22.7801 44.8176C22.6078 44.7831 22.4195 44.7698 22.2498 44.807C22.1039 44.8389 22.1808 45.0038 22.1782 45.1075C22.1729 45.9185 22.1755 46.7269 22.1755 47.5725C22.0642 47.4768 21.9899 47.4103 21.9157 47.3465C21.6558 47.0008 21.2952 46.812 20.8921 46.695C19.1606 46.1924 17.514 47.5912 17.6571 49.4632C17.7367 50.5216 18.2988 51.2847 19.2773 51.665C20.2319 52.0373 21.1281 51.8644 21.8998 51.1598C21.9793 51.088 22.0615 51.0135 22.1755 50.9098C22.1755 51.1252 22.1914 51.2847 22.1729 51.4416C22.1384 51.6969 22.2471 51.7501 22.4752 51.7288C22.6634 51.7102 22.8438 51.7634 22.8331 51.4496C22.8093 50.8008 22.8252 50.1519 22.8252 49.5031C22.8199 48.014 22.8172 46.5275 22.8119 45.0384C22.8252 44.9586 22.8703 44.8336 22.7801 44.8176ZM20.2345 51.2395C19.1553 51.2262 18.2882 50.3195 18.2962 49.2159C18.3068 48.0964 19.203 47.2056 20.2955 47.2269C21.4013 47.2508 22.2286 48.1203 22.2233 49.2531C22.218 50.4046 21.3641 51.2528 20.2345 51.2395ZM22.2922 44.8629C22.2869 44.8575 22.2816 44.8575 22.2763 44.8522C22.2922 44.8522 22.3081 44.8522 22.324 44.8522C22.3134 44.8549 22.3028 44.8602 22.2922 44.8629Z" fill="white"/>
<path d="M28.9083 50.5482C28.956 50.4604 29.0462 50.3807 28.9136 50.2769C28.6087 50.0429 28.4893 50.0562 28.2719 50.3727C27.784 51.0774 26.9593 51.3911 26.1267 51.1944C25.3896 51.0189 24.8433 50.3727 24.7267 49.5563C24.6948 49.3383 24.7373 49.2585 24.9759 49.2638C25.6335 49.2798 26.2885 49.2691 26.9461 49.2691C27.6143 49.2691 28.2799 49.2638 28.9481 49.2718C29.1257 49.2744 29.1867 49.2319 29.1735 49.0431C29.1204 48.2586 28.8049 47.6045 28.1871 47.1285C27.3677 46.4983 26.4423 46.4185 25.5222 46.8333C24.5676 47.2641 24.1141 48.0805 24.0452 49.1096C23.963 50.2982 24.7161 51.4018 25.8085 51.7262C27.0522 52.0958 28.317 51.6172 28.9083 50.5482ZM24.8354 48.5086C25.0952 47.7268 25.7767 47.2216 26.6093 47.2189C27.4393 47.2162 28.1579 47.7295 28.4071 48.4793C28.4708 48.6708 28.4496 48.7134 28.2427 48.708C27.7045 48.6921 27.1635 48.7027 26.6226 48.7027V48.7054C26.0816 48.7054 25.5434 48.7027 25.0024 48.708C24.8566 48.7107 24.7638 48.724 24.8354 48.5086Z" fill="white"/>
<path d="M22.6183 36.6965C22.4884 36.6886 22.3001 36.6247 22.316 36.8853C22.3266 37.0901 22.3187 37.2975 22.3187 37.4943C22.263 37.4996 22.2471 37.5049 22.2444 37.5023C22.2206 37.481 22.1994 37.4597 22.1782 37.4358C21.4702 36.6141 20.5686 36.3774 19.5663 36.6965C18.5428 37.021 17.9276 37.7708 17.7923 38.8505C17.5855 40.5125 18.8769 41.9271 20.4519 41.7915C20.7516 41.8128 21.0326 41.7516 21.2952 41.6027L21.3217 41.6054L21.3429 41.5868C21.4304 41.5814 21.4967 41.5336 21.555 41.4751C21.6134 41.4299 21.669 41.3847 21.7274 41.3368C21.8785 41.3102 21.974 41.2092 22.0562 41.0895C22.1649 41.0815 22.1702 40.9087 22.3213 40.9299C22.3213 41.1214 22.3293 41.3129 22.3187 41.5017C22.3028 41.8022 22.5255 41.6772 22.6501 41.6825C22.7695 41.6878 22.9577 41.7835 22.9577 41.5096C22.9498 39.9673 22.9524 38.4277 22.9577 36.8853C22.9551 36.5955 22.7509 36.7045 22.6183 36.6965ZM22.3532 39.5445C22.3134 39.6961 22.2763 39.8477 22.2365 39.9992C22.0721 40.2971 21.9077 40.5922 21.624 40.797C20.505 41.5947 19.1182 41.2092 18.6011 40.0072C18.1689 39.0047 18.6303 37.7788 19.5795 37.364C20.611 36.9119 21.7353 37.3693 22.2153 38.4303C22.2312 38.4676 22.255 38.5021 22.2736 38.5393C22.3346 38.8717 22.3585 39.2095 22.3505 39.5472L22.3532 39.5445Z" fill="white"/>
<path d="M12.1317 56.8398C12.0097 56.6723 11.8745 56.5127 11.6359 56.5818C11.3972 56.651 11.2249 56.7972 11.193 57.0632C11.132 57.5578 11.0313 58.0524 11.0286 58.5496C11.0207 60.1637 11.0021 61.7779 11.0923 63.392C11.1188 63.8467 11.2196 64.2961 11.368 64.7269C11.4158 64.8678 11.5059 64.9981 11.6809 65.0034C11.8559 65.0088 11.9355 64.8811 12.0097 64.7482C12.137 64.5195 12.1768 64.2695 12.1954 64.0142C12.2908 62.7431 12.3147 61.4694 12.3757 60.1983C12.3757 59.35 12.3783 58.4991 12.3757 57.6508C12.3783 57.3557 12.3067 57.0791 12.1317 56.8398Z" fill="white"/>
<path d="M28.086 41.6719C28.261 41.6958 28.4519 41.7144 28.619 41.6692C28.7542 41.6346 28.6826 41.4645 28.6826 41.3581C28.6932 40.5178 28.6561 39.6775 28.7224 38.8399C28.786 38.0527 29.3058 37.4119 30.0031 37.2284C30.9365 36.9838 31.6578 37.4757 31.7002 38.441C31.7426 39.4275 31.7347 40.4168 31.732 41.406C31.732 41.6214 31.7744 41.7171 32.0051 41.6878C32.1934 41.6639 32.4029 41.7543 32.3923 41.406C32.3658 40.6002 32.3896 39.7892 32.3817 38.9835C32.379 38.6112 32.3631 38.2389 32.2677 37.8772C32.0608 37.0901 31.4085 36.5849 30.5945 36.5689C29.8122 36.5556 29.2236 36.9173 28.6853 37.5821C28.6853 37.3374 28.6853 37.1912 28.6853 37.0449C28.6853 36.3535 28.6773 35.6622 28.6906 34.9734C28.6959 34.6969 28.5156 34.7554 28.375 34.766C28.2372 34.7767 28.0277 34.657 28.0277 34.9708C28.0356 37.138 28.0303 39.3079 28.033 41.4751C28.0303 41.5469 27.9932 41.6612 28.086 41.6719Z" fill="white"/>
<path d="M39.738 41.1002C39.8149 41.0842 39.852 41.031 39.8732 40.9645C41.1274 39.7307 40.5679 37.3268 38.8841 36.7311C37.8102 36.3509 36.7045 36.6434 35.9779 37.4996C35.27 38.332 35.1559 39.5685 35.7022 40.5391C36.5003 41.9564 38.6614 42.2596 39.738 41.1002ZM37.9667 37.2098C39.0432 37.2204 39.8891 38.1006 39.8865 39.2095C39.8865 40.3529 39.0671 41.2012 37.972 41.1932C36.845 41.1852 36.031 40.3449 36.0336 39.1962C36.0363 38.0926 36.906 37.1991 37.9667 37.2098Z" fill="white"/>
<path d="M46.4729 48.3384C46.3404 46.8759 44.988 46.1579 43.6834 46.844C43.3626 47.0115 43.108 47.2588 42.8163 47.6045C42.8163 47.3359 42.7978 47.1498 42.8216 46.9689C42.8535 46.7137 42.7209 46.6871 42.5246 46.711C42.3602 46.7323 42.1481 46.6206 42.1534 46.961C42.172 48.4474 42.172 49.9366 42.1534 51.4231C42.1508 51.7368 42.2966 51.7182 42.5114 51.7289C42.7421 51.7395 42.819 51.6836 42.819 51.4337C42.8163 50.5934 42.7872 49.7557 42.8481 48.9154C42.8985 48.2161 43.2247 47.6869 43.8505 47.3625C44.7255 46.9104 45.6218 47.3279 45.81 48.2666C45.8339 48.3916 45.8419 48.5192 45.8445 48.6469C45.8525 49.5935 45.8657 50.5375 45.8604 51.4842C45.8604 51.6943 45.94 51.7581 46.1203 51.7182C46.2635 51.6863 46.518 51.8538 46.5127 51.5241C46.5021 50.4631 46.5711 49.3994 46.4729 48.3384Z" fill="white"/>
<path d="M42.3889 41.4405C42.3916 40.664 42.3916 39.8876 42.4022 39.1137C42.4128 38.3479 42.6965 37.7257 43.3965 37.3534C44.3564 36.8401 45.3004 37.3507 45.3985 38.433C45.4834 39.3664 45.4304 40.3024 45.441 41.2358C45.4463 41.7224 45.4807 41.7516 45.9554 41.6878C46.0694 41.6719 46.0933 41.632 46.0906 41.5309C46.0588 40.4061 46.1596 39.2786 46.0243 38.1538C45.9236 37.3055 45.3269 36.6806 44.5155 36.5822C43.8632 36.5051 43.2772 36.6912 42.792 37.1433C42.6673 37.2603 42.5692 37.4012 42.4579 37.5315C42.3863 37.3374 42.3704 37.1991 42.3916 37.0635C42.4367 36.7604 42.3332 36.6513 42.0177 36.6753C41.8029 36.6912 41.7154 36.7391 41.7313 36.9651C41.7499 37.2071 41.7366 37.4544 41.7366 37.6991C41.7419 38.9941 41.7499 40.2917 41.7552 41.5868C41.8347 41.7437 41.9461 41.7117 42.0575 41.6852C42.0919 41.6852 42.1317 41.6772 42.1794 41.6639C42.4128 41.7463 42.3889 41.5814 42.3889 41.4405Z" fill="white"/>
<path d="M33.9645 58.9857C33.7922 58.866 33.6012 58.7703 33.4183 58.6639C33.1717 58.5203 32.9224 58.3847 32.7156 58.1773C32.5035 57.9619 32.3841 57.7173 32.5167 57.4327C32.6467 57.1535 32.8959 57.0099 33.2088 57.0073C33.5323 57.002 33.8134 57.1323 34.0441 57.3423C34.1952 57.4806 34.2695 57.4301 34.3994 57.3184C34.6195 57.1269 34.6407 56.978 34.3755 56.8238C34.2111 56.7281 34.0573 56.6111 33.885 56.5313C33.2221 56.2148 32.408 56.4356 32.0633 57.0179C31.6947 57.6348 31.8671 58.3927 32.4929 58.8448C32.6891 58.9857 32.9118 59.0921 33.1213 59.2144C33.3122 59.3287 33.5164 59.4245 33.6861 59.5627C34.2058 59.9855 34.0945 60.6849 33.4687 60.9322C33.0126 61.113 32.6122 60.9668 32.2701 60.6557C32.119 60.5174 32.0315 60.4722 31.883 60.661C31.7504 60.8312 31.6099 60.9455 31.8459 61.1449C32.2171 61.4587 32.6307 61.6395 33.0683 61.6289C33.8187 61.6289 34.3649 61.246 34.5717 60.6131C34.7786 59.9909 34.5611 59.4005 33.9645 58.9857Z" fill="white"/>
<path d="M24.4905 40.8103C24.3711 40.7039 24.2836 40.6215 24.1749 40.8103C24.0927 40.9565 23.7957 41.0363 24.0556 41.2863C24.4745 41.6851 24.9651 41.8447 25.5352 41.8022C26.1106 41.7596 26.633 41.3714 26.808 40.8475C27.0095 40.2465 26.8478 39.6855 26.3546 39.2759C26.1504 39.1058 25.917 38.9781 25.6837 38.8558C25.2966 38.6537 24.928 38.4277 24.7158 38.0208C24.7211 37.8958 24.7264 37.7682 24.7318 37.6432C25.0393 37.1832 25.4371 37.0662 25.9356 37.2975C26.0682 37.3587 26.2008 37.4358 26.3068 37.5342C26.4288 37.6459 26.4977 37.6432 26.6171 37.5235C26.9008 37.2337 26.9087 37.2257 26.5906 36.9891C26.4898 36.9146 26.3811 36.8455 26.2697 36.7843C25.5432 36.3854 24.6893 36.5662 24.3075 37.2018C23.9177 37.8453 24.1378 38.6298 24.8484 39.1004C25.0685 39.2467 25.3072 39.361 25.5405 39.4887C25.7261 39.5897 25.9117 39.6934 26.0549 39.8556C26.3519 40.188 26.3333 40.6321 26.0072 40.9326C25.5909 41.3129 25.0075 41.2703 24.4905 40.8103Z" fill="white"/>
<path d="M32.0504 51.6836C33.1455 51.0321 33.1773 49.8435 32.114 49.1388C31.992 49.0564 31.8594 48.9899 31.7295 48.9154C31.4909 48.7798 31.2496 48.6495 31.0401 48.4634C30.7245 48.1815 30.6264 47.905 30.7617 47.6311C30.9155 47.3146 31.3 47.1471 31.6818 47.2348C31.9337 47.2933 32.1432 47.4343 32.35 47.5859C32.6152 47.78 32.6364 47.4449 32.7769 47.3651C32.936 47.2747 32.8087 47.195 32.7318 47.1285C32.4985 46.9264 32.2386 46.7615 31.9443 46.6631C30.9499 46.3387 30.0351 47.0567 30.1332 48.0911C30.181 48.5884 30.4965 48.9154 30.8969 49.1627C31.2204 49.3622 31.5651 49.5297 31.8833 49.7345C32.1485 49.9046 32.2943 50.1626 32.2519 50.4923C32.2068 50.8194 32 51.0242 31.7057 51.1385C31.2337 51.322 30.8359 51.1598 30.4832 50.8407C30.3772 50.7449 30.2844 50.6226 30.173 50.8247C30.0935 50.971 29.7859 51.0507 30.051 51.3034C30.5071 51.7368 31.0295 51.9123 31.6473 51.798C31.8011 51.8192 31.9284 51.7661 32.0504 51.6836Z" fill="white"/>
<path d="M37.3216 58.8182C37.2181 58.7092 37.0909 58.648 36.945 58.6135C36.831 58.5044 36.7037 58.414 36.5473 58.3741C36.4412 58.2678 36.3352 58.1614 36.2291 58.055C36.1177 57.7997 36.0965 57.5445 36.2397 57.2918C36.4359 57.127 36.6401 56.9807 36.9159 56.9993C37.2235 57.0206 37.4913 57.1403 37.7167 57.3424C37.8439 57.4594 37.9208 57.4674 38.0428 57.3317C38.3106 57.0366 38.3212 57.0392 38.0057 56.8052C37.8625 56.6988 37.7087 56.6005 37.547 56.526C36.8867 56.2229 36.0779 56.4303 35.7385 56.9834C35.354 57.6083 35.5184 58.3422 36.1522 58.8342C36.3192 58.9645 36.5049 59.0629 36.6905 59.1639C36.9132 59.2862 37.1439 59.3979 37.3401 59.5521C37.8572 59.9537 37.767 60.6451 37.1704 60.9083C36.6958 61.1184 36.2874 60.9509 35.9135 60.6424C35.8473 60.5866 35.7783 60.4243 35.7041 60.5121C35.5847 60.6504 35.3355 60.7248 35.4044 60.9854C35.4999 61.1317 35.6192 61.246 35.781 61.3125C36.3219 61.7008 36.9132 61.73 37.4939 61.4641C38.0402 61.2141 38.3159 60.7434 38.3 60.1292C38.2815 59.4724 37.8917 59.0761 37.3216 58.8182ZM35.6669 60.8019C35.6643 60.8046 35.6643 60.8073 35.6616 60.8073C35.6616 60.8046 35.6616 60.8019 35.659 60.7993C35.6563 60.8019 35.6537 60.8046 35.6537 60.8046C35.659 60.7966 35.6669 60.7887 35.6696 60.778C35.6696 60.7807 35.6696 60.7833 35.6696 60.7833C35.6669 60.7887 35.6643 60.7913 35.659 60.7966C35.6616 60.802 35.6643 60.8019 35.6669 60.8019ZM35.7253 61.0599C35.7253 61.0572 35.7226 61.0572 35.72 61.0546V61.0519C35.7226 61.0546 35.7226 61.0546 35.7253 61.0572H35.7226L35.7253 61.0599Z" fill="white"/>
<path d="M12.2586 65.6257C12.0199 65.5167 11.5373 65.7134 11.4419 65.9634C11.1741 66.6681 11.2032 67.4047 11.2589 68.1359C11.3013 68.697 11.3623 69.2581 11.6116 69.7766C11.662 69.8803 11.7256 70.0133 11.8529 70.0027C12.004 69.9894 11.9775 69.8325 11.9987 69.7235C12.187 68.7289 12.2029 67.7158 12.2718 66.8356C12.293 66.4155 12.3116 66.1176 12.3222 65.8198C12.3249 65.748 12.3487 65.6656 12.2586 65.6257Z" fill="white"/>
<path d="M20.0731 57.0153C20.8076 56.9621 21.4546 57.1482 21.9584 57.7146C22.1997 57.9859 22.327 57.6854 22.4835 57.6109C22.6585 57.5311 22.5259 57.4274 22.4463 57.3477C22.3907 57.2147 22.2925 57.1163 22.1706 57.0419C21.1258 56.0925 19.1742 56.1829 18.2806 57.2227C18.2435 57.2253 18.2223 57.2413 18.2223 57.2812C18.1242 57.3423 18.0526 57.4274 18.0234 57.5418C17.4347 58.2651 17.3393 59.467 17.8404 60.294C18.4901 61.363 19.4845 61.73 20.6883 61.6076C21.3989 61.5358 22.0141 61.2593 22.4676 60.6823C22.5179 60.6184 22.6267 60.5626 22.5206 60.4456C22.3005 60.2009 22.0963 60.1903 21.8577 60.4217C20.8925 61.3577 19.2564 61.2141 18.5219 60.1159C18.0685 59.4378 18.095 58.7198 18.4185 57.9965C18.8322 57.4328 19.3572 57.0658 20.0731 57.0153Z" fill="white"/>
<path d="M30.1758 1.32691C30.1996 1.31893 30.2235 1.31361 30.2474 1.30563C30.2209 1.30563 30.197 1.31095 30.1758 1.32691Z" fill="white"/>
<path d="M3.20085 14.6097C3.28039 14.6017 3.34403 14.6336 3.42093 14.6948C3.33078 14.7772 3.24062 14.857 3.15046 14.9394C3.23001 15.0405 3.34934 15.0405 3.46601 15.0511C3.8611 14.9367 4.29332 14.9261 4.61417 14.6123C4.74145 14.2666 5.03048 14.3172 5.3089 14.3517C5.31155 14.3517 5.31155 14.3491 5.3142 14.3491C5.28769 14.2613 5.21609 14.3039 5.18427 14.264C5.35398 14.2799 5.23996 13.9901 5.3964 14.0406C5.58467 14.0991 5.76233 14.0725 6.01424 13.9901C5.83923 14.2081 5.61649 14.123 5.49186 14.2693C5.57141 14.2773 5.64301 14.2826 5.71195 14.2906C6.01954 14.1842 6.31918 14.038 6.63472 13.9768C7.34801 13.8412 8.05865 13.7295 8.71626 13.3891C9.30757 13.086 9.92275 12.8333 10.5273 12.5568C10.591 12.4318 10.652 12.2909 10.8243 12.3414C10.9171 12.368 11.0073 12.5329 10.9648 12.5541C10.7235 12.6658 10.9357 12.8812 10.8349 13.0115C10.9145 13.6896 11.2406 14.24 11.7285 14.7001C11.8001 14.7666 11.8982 14.7905 11.9937 14.7825C12.4233 14.7479 12.8502 14.7054 13.2718 14.8543C13.346 14.8809 13.5237 14.95 13.5131 14.732C13.4097 14.732 13.3089 14.732 13.2055 14.732C13.2055 14.7107 13.2055 14.6894 13.2055 14.6682C13.3116 14.6682 13.4176 14.6682 13.521 14.6682C13.643 14.3225 13.7544 13.9502 13.9241 13.6497C14.2343 13.0966 14.3961 12.5275 14.465 11.9159C14.4915 11.6713 14.6453 11.5543 14.8628 11.4798C15.6397 11.2086 16.4166 10.9374 17.1882 10.6448C18.5194 10.1396 19.8505 9.63436 21.1604 9.07328C21.0756 8.9483 20.9721 8.98819 20.8661 9.03871C20.7759 9.08126 20.6858 9.12646 20.5824 9.11849C20.5797 9.12115 20.577 9.12115 20.5744 9.12381C20.4392 9.30729 20.2986 9.28601 20.1554 9.12115C20.2986 9.20358 20.4392 9.16635 20.577 9.11849C20.5797 9.11849 20.5797 9.11583 20.5824 9.11583C20.8077 8.8632 21.0809 8.91107 21.3619 8.99882C21.7862 8.84193 22.2131 8.6877 22.6374 8.52815C23.4965 8.20373 24.3583 7.87931 25.2148 7.54426C25.3765 7.48044 25.5913 7.44853 25.6417 7.25175C25.6868 7.0789 25.8034 6.98583 25.9201 6.88212C25.8777 6.86085 25.8326 6.83958 25.7902 6.8183C25.5011 6.88744 25.2095 6.95392 24.9204 7.02306C24.8541 7.08954 24.764 7.07624 24.6844 7.08954C24.5333 7.1374 24.3822 7.18527 24.231 7.23048C24.231 7.23313 24.231 7.23313 24.231 7.23579L24.2284 7.23313C24.1409 7.24909 24.0533 7.26504 23.9658 7.281C23.8942 7.36077 23.7935 7.33684 23.7033 7.3528C23.6476 7.43257 23.5734 7.38205 23.4832 7.40332C23.5495 7.30227 23.6344 7.31025 23.7007 7.281C23.767 7.25973 23.8306 7.24111 23.8969 7.21984C24.0083 7.17197 24.1223 7.10815 24.2284 7.23313H24.231C24.2045 6.99115 24.4193 7.0789 24.528 7.0204C24.5916 7.00179 24.6579 6.98317 24.7216 6.96456C25.7212 6.62153 26.7209 6.28115 27.7206 5.94078C28.0547 5.82643 28.3596 5.67752 28.6089 5.40894C29.049 4.93561 29.5794 4.57131 30.1999 4.41707C31.6132 4.06606 33.0265 3.73633 34.3709 3.14067C35.0417 2.84284 35.7816 2.70457 36.4895 2.49449C36.3941 2.38281 36.2827 2.42801 36.1713 2.45461C36.0626 2.47854 35.9672 2.56097 35.8134 2.52374C36.1183 2.34292 36.402 2.27644 36.7096 2.43599C37.2824 2.32431 37.8392 2.15412 38.3961 1.97596C38.3483 1.9015 38.2608 1.94139 38.1972 1.91214C38.0726 1.92809 37.9506 1.94139 37.826 1.95734C37.7888 1.96798 37.7544 1.97861 37.7173 1.98925C37.6112 2.04509 37.4998 2.05307 37.3831 2.04243C37.3831 2.04509 37.3831 2.04509 37.3831 2.04775L37.3778 2.04243C37.3805 2.04243 37.3831 2.04243 37.3831 2.04243C37.3858 1.96266 37.4282 1.92543 37.5078 1.92543C37.5953 1.90948 37.6616 1.8164 37.765 1.86427C38.4279 1.67015 39.0908 1.47603 39.7696 1.27659C39.4965 0.954834 39.4885 0.797943 39.759 0.752737C40.239 0.672962 40.5359 0.271427 41.061 0.143787C40.8276 0.0746485 40.6738 0.0932627 40.5174 0.103899C39.5761 0.173038 38.6533 0.372476 37.7279 0.55064C36.6168 0.766033 35.5084 0.997381 34.4 1.22075C34.1932 1.27659 33.9944 1.3936 33.769 1.3085C33.761 1.31116 33.7504 1.31382 33.7424 1.31648C33.6815 1.43348 33.5674 1.41753 33.4614 1.41487C33.411 1.43614 33.3606 1.45742 33.3102 1.47869C33.4799 1.58506 33.6682 1.51326 33.8485 1.54251C33.8114 1.55315 33.7716 1.56112 33.7345 1.5691C33.7371 1.57176 33.7398 1.57176 33.7424 1.57176C33.7371 1.57176 33.7318 1.57176 33.7292 1.5691C33.5383 1.61165 33.35 1.61431 33.1617 1.52124C33.0636 1.53187 32.9655 1.54251 32.8674 1.55581C32.8223 1.62494 32.7481 1.59303 32.6871 1.60633C32.5757 1.67015 32.4617 1.68345 32.3371 1.64622C32.3424 1.53719 32.414 1.53985 32.4882 1.54517C32.6128 1.52124 32.7295 1.44944 32.8647 1.46805C32.9496 1.44944 33.0345 1.43083 33.1193 1.41221C33.2042 1.39094 33.289 1.36966 33.3739 1.34839C33.4958 1.31648 33.6152 1.22873 33.7477 1.30319H33.7504C33.7504 1.30053 33.7531 1.30053 33.7531 1.30053V1.30319V1.30053C33.7557 1.30053 33.7557 1.30053 33.7584 1.30319C33.761 1.30319 33.761 1.30319 33.7637 1.30319C33.8644 1.133 34.05 1.1915 34.1985 1.14895C34.2807 1.12502 34.3603 1.10109 34.4425 1.07981C35.5296 0.808579 36.6248 0.571913 37.6987 0.255472C37.7782 0.125173 37.9426 0.16506 38.0514 0.0906035C38.054 0.0852852 38.0593 0.0773077 38.062 0.0719893C37.6801 0.162401 37.293 0.154424 36.9085 0.125173C36.6699 0.109218 36.4471 -0.0769242 36.1899 0.0640118C36.1289 0.0959219 36.0016 0.0294426 36.0361 0.186334C36.0626 0.311315 36.1422 0.348543 36.2456 0.308655C36.4975 0.204948 36.7574 0.380453 37.0066 0.268768C36.6937 0.468206 36.3543 0.438955 36.0202 0.388431C35.8001 0.353861 35.8266 0.210266 35.9168 0.0613526C34.0686 0.356521 32.2522 0.803261 30.4412 1.26596C30.4014 1.4521 30.2767 1.34839 30.1839 1.34307C29.9559 1.37498 29.7438 1.48401 29.5237 1.52921C28.9721 1.6409 28.4339 1.79513 27.9009 1.9733C27.9088 2.11157 27.8903 2.21528 27.71 2.14348C27.6198 2.10625 27.5323 2.08764 27.588 2.23921L27.5906 2.24187C27.6728 2.24187 27.7524 2.24187 27.8744 2.24187C27.7471 2.33494 27.6649 2.31899 27.588 2.24187C27.474 2.21794 27.3599 2.19401 27.2459 2.17007C26.2807 2.41472 25.3367 2.72584 24.4034 3.06621C24.4299 3.10876 24.231 3.16726 24.4087 3.19385C24.4537 3.20183 24.5121 3.17258 24.5492 3.14067C24.6288 3.07419 24.7003 3.07685 24.7746 3.13801C24.7905 3.15131 24.8011 3.19917 24.7905 3.21513C24.7322 3.30022 24.65 3.34277 24.5492 3.31884C24.3662 3.27895 24.1859 3.23374 24.003 3.1912C22.3165 3.71239 20.6089 4.16445 18.9542 4.7867C18.3232 5.02336 17.8671 4.91434 17.4985 4.35591C17.4136 4.22561 17.3235 4.19636 17.1882 4.20168C16.8488 4.20966 16.5094 4.21498 16.1727 4.21498C16.0348 4.21498 15.8889 4.21232 15.7935 4.09C15.5734 3.80812 15.2632 3.76292 14.9397 3.75494C14.1601 3.73898 13.4415 3.99426 12.7149 4.22827C12.4445 4.31602 12.2297 4.46494 12.1183 4.71224C11.8558 5.29726 11.4899 5.78389 10.933 6.11628C10.9118 6.12958 10.9012 6.16415 10.8747 6.20669C11.1611 6.23861 11.4289 6.26254 11.6967 6.30242C11.8134 6.32104 11.9778 6.32104 11.991 6.47793C12.0043 6.61887 11.8505 6.64812 11.7524 6.69864C11.2061 6.99381 10.6546 7.28632 10.1031 7.57351C9.93336 7.66126 9.83525 7.77826 9.86442 7.97238C9.88828 8.14257 9.80343 8.21969 9.66024 8.28351C9.2731 8.45635 8.89392 8.63984 8.50678 8.818C7.37188 9.33654 6.24758 9.87369 5.17897 10.5199C5.2267 10.6448 5.43618 10.5066 5.44944 10.6847C5.48656 10.6741 5.52368 10.6635 5.56081 10.6555C5.62444 10.6023 5.72521 10.5146 5.76763 10.581C5.83127 10.6821 5.68543 10.6821 5.62975 10.7246C5.56611 10.7486 5.51838 10.8097 5.44148 10.7911C5.31685 10.8815 5.21344 11.0198 5.03048 10.9905L5.00926 10.9852C5.01987 11.0889 4.96684 11.1395 4.86608 11.1501C4.24559 11.4851 3.6092 11.791 3.02584 12.1951C2.9622 12.2882 2.86939 12.3281 2.75802 12.3228C2.15875 12.6126 1.5913 12.9636 1.01854 13.3014C0.403364 13.663 0.0984256 14.2135 0.013573 14.9075C0.000314842 14.9341 -0.00498844 14.9953 0.0162247 15.0351C0.167368 15.3011 0.562463 15.4447 0.870053 15.3516C1.41629 15.1867 1.96253 15.0245 2.50877 14.8596C2.53263 14.7932 2.59627 14.8144 2.64135 14.7985C2.69703 14.7107 2.7978 14.7506 2.87204 14.7187C2.9728 14.6549 3.08152 14.615 3.20085 14.6097ZM25.4402 7.16666C25.4508 7.12943 25.4746 7.10018 25.5038 7.04433C25.5224 7.08954 25.5409 7.11347 25.5356 7.13475C25.5303 7.16931 25.5171 7.2225 25.4932 7.23313C25.4375 7.25707 25.4296 7.20654 25.4402 7.16666ZM24.9072 7.33152C24.9257 7.164 24.9257 7.164 25.1936 7.09752C25.1962 7.18261 25.0265 7.27568 25.2254 7.34482C25.0928 7.3395 25 7.33418 24.9072 7.33152C24.9682 7.55223 24.7958 7.57883 24.6473 7.65062C24.8011 7.3395 24.8011 7.3395 24.9072 7.33152ZM37.3725 2.0318C37.3725 2.0318 37.3752 2.0318 37.3725 2.0318L37.3778 2.03712C37.3778 2.03446 37.3752 2.03446 37.3725 2.0318C37.2532 2.15146 37.11 2.11157 36.8873 2.08232C37.0994 2.0318 37.2214 1.9015 37.3725 2.0318ZM36.3172 1.12502C36.182 1.15693 36.0944 1.03993 35.9831 1.05588C36.1024 1.00004 36.2111 1.00536 36.3172 1.12502ZM35.6596 2.55831C35.6092 2.64873 35.5296 2.63809 35.4368 2.65936C35.4899 2.53438 35.5694 2.54236 35.6596 2.55831ZM34.0368 2.86678C34.1428 2.86146 34.2383 2.90666 34.3364 2.95985C34.241 2.98644 34.1535 3.01037 34.0633 3.0343C34.0182 3.04494 33.9148 3.12738 33.9387 3.06887C33.989 2.93326 33.8512 2.93857 33.8538 2.92262C33.8777 2.82423 33.9705 2.86944 34.0368 2.86678ZM34.0686 0.954834C33.875 1.13566 33.6894 1.0612 33.5303 1.03727C33.6894 1.01334 33.8485 0.989403 34.0686 0.954834ZM30.0779 1.46805C30.0938 1.46539 30.115 1.47869 30.1362 1.48667C30.0991 1.54251 30.0301 1.59835 29.993 1.55315C29.9506 1.50262 30.0301 1.47869 30.0779 1.46805ZM28.4312 5.47542C28.2907 5.21217 28.2164 5.04198 28.4233 4.82659C28.3517 5.11644 28.5267 5.00741 28.6592 4.98348C28.6009 5.1643 28.4551 5.24408 28.4312 5.47542ZM28.5585 1.95468C28.4471 2.0903 28.2774 1.99723 28.1475 2.06105C28.2615 1.93075 28.4179 1.98659 28.5585 1.95468ZM25.5993 6.45932C25.4561 6.51516 25.3633 6.55239 25.2705 6.58962C25.3235 6.46995 25.411 6.42209 25.5993 6.45932ZM18.3762 10.004C18.2144 10.113 18.1375 10.1768 17.997 10.1768C18.0792 10.0598 18.1747 10.0279 18.3762 10.004ZM16.8647 10.5385C16.7905 10.6635 16.6977 10.6555 16.5731 10.6688C16.6553 10.5651 16.7242 10.5146 16.8647 10.5385ZM13.9957 3.98097C13.9612 4.207 13.8445 4.18838 13.6748 4.15382C13.4733 4.11393 13.2983 4.35591 13.0543 4.23359C13.3752 4.14584 13.6801 4.0634 13.9957 3.98097ZM11.9539 14.6496C11.8929 14.5113 11.8611 14.4342 11.8293 14.3571C11.9592 14.3836 11.999 14.4554 11.9539 14.6496ZM11.7709 14.1044C11.877 14.2002 11.6994 14.2693 11.7047 14.3703C11.6357 14.1895 11.6357 14.1895 11.4315 14.1736C11.5376 14.0034 11.6834 14.0273 11.7709 14.1044ZM11.3891 14.0167C11.2671 13.8944 11.2035 13.7508 11.1611 13.562C11.3573 13.6763 11.3414 13.8651 11.3891 14.0167ZM7.01125 13.7135C6.86541 13.8438 6.86541 13.8438 6.59229 13.8066C6.73018 13.7641 6.87867 13.7853 7.01125 13.7135ZM4.51606 14.2613C4.52932 14.2427 4.56909 14.2374 4.59826 14.2347C4.60622 14.2347 4.61682 14.264 4.63008 14.2853C4.60356 14.2985 4.5797 14.3225 4.55318 14.3251C4.51606 14.3251 4.49485 14.2906 4.51606 14.2613Z" fill="white"/>
<path d="M34.2749 46.7136C34.1105 46.7482 33.8639 46.5887 33.8692 46.9636C33.8851 48.4634 33.8825 49.9631 33.8692 51.4602C33.8666 51.7049 33.9567 51.7448 34.1636 51.7262C34.3571 51.7076 34.5587 51.7847 34.5427 51.439C34.5136 50.7077 34.5348 49.9711 34.5348 49.2372C34.5348 48.482 34.5268 47.7268 34.5401 46.9716C34.5427 46.7668 34.4924 46.6711 34.2749 46.7136Z" fill="white"/>
<path d="M34.1855 44.6687C33.8965 44.6767 33.6764 44.9134 33.6817 45.2059C33.687 45.4824 33.9416 45.7271 34.2174 45.7271C34.509 45.7244 34.7318 45.4957 34.7291 45.1979C34.7265 44.8841 34.4984 44.6607 34.1855 44.6687Z" fill="white"/>
<path d="M30.3747 56.5074C30.2341 56.518 30.0061 56.409 30.0273 56.7174C30.0406 56.9195 30.03 57.1269 30.03 57.3849C28.7731 56.1218 27.1025 56.0792 26.1771 57.2307C26.1029 57.2705 26.0498 57.329 26.0286 57.4115C25.204 58.3502 25.3047 59.9776 26.2461 60.8657C26.2964 60.9721 26.3919 61.0306 26.4847 61.0864C26.6252 61.2008 26.7578 61.3258 26.9355 61.379C27.0362 61.4375 27.1344 61.5066 27.259 61.5013C28.3329 61.8337 29.2318 61.5225 30.0247 60.6743C30.0247 60.8764 30.0167 61.0014 30.0273 61.1237C30.0353 61.246 29.9637 61.4135 30.0697 61.48C30.1599 61.5358 30.3137 61.496 30.4383 61.496C30.4595 61.496 30.4807 61.496 30.502 61.496C30.6796 61.5358 30.6557 61.4082 30.6557 61.3045C30.6557 59.7728 30.6504 58.2438 30.661 56.7121C30.6664 56.4568 30.5126 56.4967 30.3747 56.5074ZM29.9875 59.6877C29.9504 59.8898 29.9186 60.0946 29.7303 60.2222C29.1151 60.9216 28.3727 61.23 27.4605 60.9163C26.5086 60.5918 25.9517 59.5308 26.193 58.5576C26.4529 57.5019 27.3253 56.9009 28.4018 57.0392C29.3803 57.1642 30.0936 58.0417 30.0591 59.0894C30.0512 59.2889 30.0114 59.4883 29.9875 59.6877ZM30.197 60.0361H30.1864L30.197 60.0175V60.0201C30.1997 60.0228 30.197 60.0308 30.197 60.0361ZM30.441 56.9488C30.433 56.9461 30.4251 56.9435 30.4171 56.9408C30.4251 56.9302 30.4304 56.9169 30.441 56.9062C30.441 56.9222 30.441 56.9355 30.441 56.9488Z" fill="white"/>
</svg>
