<svg width="56" height="36" viewBox="0 0 56 36" fill="none" xmlns="http://www.w3.org/2000/svg">
<path fill-rule="evenodd" clip-rule="evenodd" d="M1.29852 16.0014C0.621847 17.2133 0.621846 18.6894 1.29852 19.9014L8.81084 33.3562C9.51598 34.6191 10.848 35.4029 12.2944 35.4062L51.2008 35.4928C53.4134 35.4978 55.2097 33.7055 55.2097 31.4929L55.2097 4.59375C55.2097 2.38809 53.4243 0.598672 51.2186 0.593759L12.3064 0.507072C10.8536 0.503833 9.51325 1.28857 8.805 2.55706L1.29852 16.0014ZM13.4928 18.0018C13.4928 16.2446 12.0683 14.82 10.311 14.82C8.55375 14.82 7.1292 16.2446 7.1292 18.0018C7.1292 19.7591 8.55375 21.1837 10.311 21.1837C12.0683 21.1837 13.4928 19.7591 13.4928 18.0018Z" fill="#9E9080"/>
</svg>
