<svg width="330" height="81" viewBox="0 0 330 81" fill="none" xmlns="http://www.w3.org/2000/svg">
<g clip-path="url(#clip0)">
<path d="M175.058 55.8174C176.36 54.225 177.622 52.4873 178.406 50.6094C179.905 47.0138 178.793 43.5885 174.53 43.0227C170.865 42.5369 167.149 42.2515 163.454 42.2164C159.265 42.1764 155.072 42.4668 150.884 42.7072C145.932 42.9926 140.994 43.4133 136.042 43.6987C131.376 43.9691 126.68 44.1945 122.075 43.233C119.666 42.7272 117.369 41.7707 115.518 39.988C114.362 38.8713 113.94 37.5142 114.774 36.2021C115.875 34.4745 117.117 32.7618 118.595 31.3547C123.508 26.6774 129.471 23.5576 135.454 20.5029C136.258 20.0923 137.183 19.922 138.048 19.6416C138.108 19.7568 138.169 19.8719 138.229 19.9871C137.636 20.9887 137.037 21.9902 136.444 22.9968C136.625 23.127 136.801 23.2572 136.982 23.3874C138.294 22.0904 139.788 20.9286 140.874 19.4663C141.879 18.1142 143.101 17.4282 144.629 16.9975C155.057 14.063 165.641 12.5757 176.486 13.5973C178.869 13.8226 181.227 14.3184 183.791 14.724C183.509 15.1997 183.409 15.5353 183.188 15.7255C180.764 17.7937 178.356 19.882 175.882 21.8901C171.689 25.2953 167.426 28.6154 163.252 32.0407C161.05 33.8485 161.111 33.9186 162.116 36.4325C162.146 36.5076 162.096 36.6178 162.076 36.783C160.286 37.9398 157.722 37.8347 156.063 40.1382C157.923 39.9079 159.436 39.8878 160.859 39.5173C169.039 37.374 176.913 34.4795 184.032 29.8123C186.858 27.9594 189.779 26.2217 191.966 23.5676C194.314 20.7183 193.525 17.1127 190.237 15.4501C189.583 15.1196 188.99 14.6689 188.165 14.1481C189.663 12.776 190.9 11.5741 192.213 10.4574C194.958 8.12882 197.748 5.85031 200.513 3.53673C201.177 2.98088 201.921 2.46508 202.399 1.77401C202.686 1.35837 202.525 0.642268 202.56 0.0613718C201.992 0.0814027 201.283 -0.108891 200.886 0.156519C199.568 1.04789 198.301 2.03442 197.13 3.10607C193.811 6.13575 190.518 9.19046 187.285 12.3053C186.134 13.412 185.038 13.6774 183.514 13.1065C182.177 12.6057 180.729 12.3553 179.306 12.14C172.966 11.1785 166.636 11.1034 160.246 11.8696C154.936 12.5056 149.697 13.2968 144.614 14.9894C144.267 15.1046 143.885 15.1146 143.362 15.1947C143.438 14.0279 143.553 12.9813 143.559 11.9347C143.579 9.63114 143.337 7.47782 141.341 5.80023C138.46 3.37649 135.408 3.32641 132.291 4.95893C124.262 9.16041 117.816 15.3349 111.662 21.8199C109.772 23.808 108.047 25.9463 106.252 28.0245C103.547 31.1544 100.903 34.3343 98.1122 37.389C97.5641 37.9899 97.2373 39.1317 95.91 38.8663C91.3146 37.9448 86.7292 36.8181 82.0835 36.3123C76.0602 35.6563 69.9816 35.3859 63.9231 35.2056C59.9159 35.0854 55.8786 35.2106 51.8915 35.5912C46.557 36.107 41.2427 36.8481 35.9534 37.7295C30.0508 38.716 24.1431 39.7777 18.3259 41.1598C13.8461 42.2264 9.43676 43.6737 5.1229 45.2962C3.45869 45.9221 1.71907 47.2191 0.783902 48.6964C-1.19705 51.8162 0.748708 55.7173 4.68548 56.4985C7.92841 57.1395 11.292 57.4099 14.6053 57.4349C18.8589 57.465 23.1124 57.0593 27.3659 56.8891C31.182 56.7338 35.0031 56.6387 38.8243 56.5235C45.4308 56.3182 52.0373 56.1179 58.6439 55.9176C61.4846 55.8324 64.3253 55.7122 67.1711 55.6922C69.1973 55.6772 71.2235 55.7874 73.2547 55.8424C73.2647 55.9727 73.2748 56.1029 73.2849 56.2331C72.9078 56.4133 72.5407 56.6387 72.1486 56.7639C68.1565 57.9958 64.1644 59.2177 60.1673 60.4195C56.5272 61.5112 52.8368 62.4527 49.2519 63.6946C46.3811 64.6861 43.5001 65.5725 41.0365 67.6657C38.1053 70.1595 38.3617 72.9539 40.1013 75.3776C41.7806 77.7212 44.2996 78.7228 46.8084 79.7093C50.3178 81.0914 53.8826 81.6022 57.5629 80.2C62.5857 78.2921 66.9649 75.3375 70.6503 71.5517C75.4619 66.6091 79.9065 61.3109 84.5522 56.208C85.0248 55.6922 85.784 55.2666 86.4678 55.1514C87.6493 54.9561 88.8761 54.9911 90.0828 55.0262C90.9073 55.0512 91.7269 55.2365 92.8279 55.3867C92.2196 56.173 91.8525 56.6687 91.4704 57.1495C89.1275 60.089 86.7694 63.0135 84.4466 65.9681C84.1298 66.3687 83.7276 66.9546 83.8181 67.3602C83.9388 67.9111 84.4114 68.487 84.8941 68.8025C85.1052 68.9427 85.8292 68.5671 86.1259 68.2466C86.6789 67.6557 86.9806 66.8044 87.5789 66.2836C91.8425 62.5879 96.1463 58.9322 100.48 55.3116C100.913 54.9511 101.601 54.7458 102.185 54.7207C107.328 54.5104 112.472 54.3552 117.615 54.1849C118.25 54.255 125.668 53.4075 126.449 53.3336C126.826 53.2986 128.872 53.2585 129.214 52.8329C128.832 52.6726 126.846 52.3871 126.449 52.342C125.443 52.2169 120.767 52.4672 119.767 52.342C118.404 52.342 118.656 52.3871 117.902 52.3871C117.65 52.3321 117.615 52.3871 117.379 52.3871C113.18 52.3871 109.133 52.337 105.091 52.4172C103.809 52.4422 103.758 51.9765 103.97 50.9549C104.246 49.6078 104.286 48.2107 104.588 46.8736C104.729 46.2577 105.126 45.5666 105.619 45.186C107.519 43.7137 109.505 42.3516 111.456 40.9445C111.788 40.7041 112.11 40.4487 112.522 40.1332C114.784 43.8139 118.374 45.2311 122.15 45.5816C126.942 46.0273 131.803 45.8821 136.63 45.7519C142.432 45.5916 148.224 45.151 154.026 44.8905C157.023 44.7553 160.035 44.6101 163.026 44.7353C166.686 44.8905 170.367 45.1359 173.982 45.6968C176.636 46.1074 177.139 47.4695 175.882 49.8933C173.816 53.8944 170.699 56.9341 166.847 59.2277C163.217 61.386 159.2 62.5528 155.198 63.8398C152.015 64.8664 148.777 65.237 145.529 65.7077C144.152 65.908 142.759 66.0332 141.366 66.1634C138.737 66.4188 136.112 66.7042 133.478 66.8845C131.99 66.9896 130.491 66.8645 128.998 66.9296C126.474 67.0347 123.955 67.2751 121.431 67.3452C117.022 67.4654 112.612 67.5305 108.198 67.5655C104.492 67.5956 100.772 67.9662 97.0915 67.1349C96.6591 67.0397 96.1262 67.3953 95.6385 67.5405C95.8899 68.0062 96.0407 68.7524 96.4128 68.8876C98.0669 69.4935 99.7663 70.2597 101.486 70.3498C104.613 70.5201 107.761 70.2697 110.898 70.1696C115.478 70.0293 120.064 69.9292 124.639 69.7088C130.029 69.4535 135.418 69.1079 140.808 68.7674C148.627 68.2716 156.279 66.9997 163.549 63.9199C167.969 62.022 171.996 59.5682 175.058 55.8174ZM186.013 15.9309C186.476 15.5703 187.321 15.6354 187.989 15.6054C188.296 15.5903 188.618 15.8307 188.929 15.9509C191.695 17.0225 192.449 19.7217 190.317 21.8951C188.477 23.768 186.421 25.5157 184.208 26.9278C178.074 30.8389 171.413 33.6782 164.529 36.0068C164.132 36.142 163.715 36.2222 163.308 36.3273C163.162 36.1521 163.011 35.9768 162.86 35.8065C163.997 34.8 165.128 33.7884 166.274 32.7969C170.563 29.0711 174.847 25.3404 179.155 21.6347C181.413 19.6917 183.67 17.7587 186.013 15.9309ZM81.4802 56.6186C77.4831 60.8552 73.5564 65.1568 69.4637 69.2932C66.0197 72.7736 61.9421 75.4327 57.4372 77.3657C56.1803 77.9065 54.7373 78.2821 53.3747 78.2821C48.8497 78.2821 44.5861 77.3707 41.6449 73.5097C40.1516 71.5467 40.4382 70.0544 42.5549 68.8225C44.2543 67.8309 46.0442 66.8995 47.9146 66.2986C54.5412 64.1753 61.2282 62.2523 67.8649 60.1641C71.7815 58.9322 75.6429 57.5301 79.5344 56.228C80.2735 55.9827 81.0428 55.8274 81.7969 55.6271C81.8472 55.7373 81.9025 55.8475 81.9528 55.9576C81.7969 56.178 81.6662 56.4233 81.4802 56.6186ZM86.9856 50.2739C85.4521 52.1518 83.5466 52.928 81.2087 52.983C76.7842 53.0832 72.3648 53.2384 67.9403 53.3436C64.7024 53.4187 61.4595 53.4037 58.2216 53.4938C52.6055 53.6591 46.9894 53.8794 41.3734 54.0697C32.0719 54.3852 22.7705 54.8008 13.464 54.9461C10.6535 54.9911 7.8178 54.3251 5.01229 53.8744C3.78047 53.6741 2.95089 52.8178 2.71458 51.5458C2.46319 50.2288 3.21736 49.3775 4.15253 48.5963C7.09883 46.1525 10.6485 45.0408 14.2232 43.9691C17.1745 43.0828 20.0907 42.0412 23.0822 41.32C26.4408 40.5138 29.8647 39.988 33.2585 39.342C35.1892 38.9714 37.1148 38.5858 39.0505 38.2403C39.7997 38.1051 40.5689 38.07 41.3281 37.9899C41.3382 38.055 41.3482 38.1201 41.3583 38.1852C43.4197 37.8547 45.471 37.3539 47.5475 37.2287C52.2938 36.9333 57.0501 36.6979 61.8064 36.6729C66.2459 36.6528 70.6955 36.788 75.12 37.1236C78.735 37.399 82.3249 38.0149 85.9097 38.5958C88.2476 38.9714 90.5604 39.5022 92.8581 40.0631C94.8843 40.5589 95.005 41.1197 93.6525 42.6421C91.4151 45.171 89.1174 47.6598 86.9856 50.2739ZM91.8928 47.6047C93.386 45.7869 94.9597 44.0292 96.4379 42.1964C96.9457 41.5654 97.4133 41.4953 98.0217 41.916C98.7658 42.4368 99.535 42.9325 100.219 43.5284C101.119 44.3147 101.063 45.176 99.9825 45.7118C96.9658 47.2141 93.9139 48.6413 90.8721 50.0986C90.7515 49.9584 90.6308 49.8182 90.5101 49.6829C90.9626 48.9869 91.3648 48.2457 91.8928 47.6047ZM92.5916 52.7176C92.1894 52.6575 91.757 52.9029 91.3347 52.9129C91.1084 52.9179 90.8269 52.7627 90.6811 52.5924C90.6207 52.5173 90.7917 52.0867 90.9475 52.0216C92.7374 51.3004 94.5424 50.6194 96.3424 49.9283C96.4178 50.1036 96.4932 50.2789 96.5686 50.4541C95.6737 51.9264 94.5625 53.0031 92.5916 52.7176ZM99.0071 52.292C98.8663 52.1818 98.7256 52.0766 98.5848 51.9665C99.5753 50.6094 100.561 49.2523 101.732 47.6498C102.034 49.6078 100.611 51.7612 99.0071 52.292ZM108.741 40.3535C108.595 40.2183 108.449 40.0881 108.304 39.9529C109.219 38.9314 110.139 37.9048 111.054 36.8832C111.23 37.0484 111.406 37.2087 111.582 37.3739C110.631 38.3705 109.686 39.362 108.741 40.3535ZM113.13 32.0908C112.949 32.0157 112.577 32.4013 112.301 32.5866C108.404 35.1605 105.714 38.8963 102.677 42.562C101.566 41.8358 100.47 41.2149 99.4847 40.4487C98.4641 39.6525 99.1982 38.9013 99.7512 38.2353C101.878 35.6813 103.959 33.0823 106.187 30.6135C110.325 26.0314 114.382 21.3492 118.797 17.0426C122.869 13.0714 127.394 9.56604 132.548 6.98205C134.579 5.96548 136.701 5.43967 138.817 6.50632C139.692 6.947 140.627 7.77327 140.974 8.64963C141.884 10.9231 141.562 13.3118 140.808 15.5903C140.316 17.0876 138.666 17.0876 137.505 17.5383C132.487 19.4863 127.776 21.9552 123.377 25.0349C121.17 26.5823 118.967 28.1297 116.78 29.6971C116.479 29.9124 116.288 30.283 116.016 30.5484C115.212 31.3346 114.749 32.7418 113.13 32.0908Z" fill="#DCD2C7"/>
<path d="M271.873 44.023C269.218 44.1532 267.187 45.6505 265.527 47.6436C265.442 47.7437 265.517 47.9791 265.517 48.4448C267.674 47.5334 269.64 46.6571 271.651 45.8859C272.355 45.6154 273.155 45.5353 273.914 45.5053C274.733 45.4702 275.271 45.8809 274.919 46.7722C274.432 48.0091 274.06 49.3662 273.265 50.3928C270.963 53.3724 267.599 54.7445 264.125 55.8663C263.793 55.9714 263.436 56.0065 262.732 56.1417C263.426 54.7796 264.09 53.758 264.457 52.6413C264.738 51.79 264.819 50.7784 264.658 49.9021C264.502 49.0507 263.823 48.7102 262.888 49.2511C261.229 50.2125 259.57 51.1991 257.825 51.9903C255.437 53.072 252.973 53.9834 250.545 54.9699C250.439 54.8497 250.338 54.7295 250.233 54.6093C250.595 54.0334 250.942 53.4375 251.329 52.8766C252.259 51.5246 253.29 50.2376 254.124 48.8304C254.718 47.8239 254.491 46.7522 253.622 45.9259C252.842 45.1848 252.048 45.4602 251.254 45.991C250.198 46.6971 249.112 47.3531 247.95 48.0893C247.689 47.3181 247.583 46.7422 247.312 46.2514C246.723 45.1848 245.507 45.1097 244.848 45.951C242.274 49.2561 239.669 52.5311 237.05 55.8012C236.336 56.6925 235.939 57.5839 236.452 58.7107C236.592 59.0261 236.633 59.3867 236.693 59.607C230.217 59.8524 223.862 60.0928 217.507 60.3332C217.457 60.1779 217.406 60.0227 217.361 59.8674C217.834 59.3516 218.231 58.7307 218.789 58.3351C220.996 56.7777 223.203 55.2052 225.516 53.8081C227.663 52.5111 229.956 51.4545 232.163 50.2526C233.118 49.7318 233.993 49.0958 233.842 47.7988C233.686 46.4668 232.832 45.7907 231.63 45.4151C229.307 44.694 227.03 45.1597 224.752 45.6655C223.415 45.961 223.234 47.0477 223.415 48.0192C223.591 48.9456 224.4 49.5115 225.476 49.4414C225.949 49.4113 226.421 49.4363 226.894 49.4363C225.24 50.7183 223.505 51.6347 221.901 52.7414C219.523 54.374 217.175 56.0666 214.938 57.8844C213.882 58.7407 213.485 60.0627 214.028 61.4399C214.621 62.9522 215.908 63.5181 217.401 63.448C219.131 63.3628 220.86 63.1425 222.57 62.847C225.119 62.4114 227.633 61.7854 230.187 61.3948C231.947 61.1244 233.747 61.1344 235.527 60.9892C236.884 60.879 238.096 60.5986 239.041 59.3817C240.871 57.0231 242.762 54.6995 244.818 52.5411C245.979 51.3293 247.523 50.4779 248.896 49.4664C249.011 49.5866 249.127 49.7068 249.247 49.8269C248.81 50.493 248.347 51.144 247.94 51.83C246.99 53.4375 245.934 55.0099 245.2 56.7126C244.949 57.2985 245.326 58.4302 245.803 58.961C246.16 59.3617 247.246 59.4668 247.835 59.2415C250.137 58.3651 252.365 57.2935 254.632 56.327C256.347 55.5958 258.081 54.9148 260.062 54.1086C259.982 54.8146 259.977 55.2303 259.886 55.6309C259.273 58.1999 261.445 60.7288 264.235 59.3116C265.739 58.5504 267.408 58.0847 268.856 57.2334C271.651 55.5958 274.417 53.8582 275.94 50.8035C277.559 47.5584 275.392 43.8527 271.873 44.023Z" fill="#DCD2C7"/>
<path d="M209.705 52.401C207.975 53.3475 206.246 54.299 204.506 55.2304C204.124 55.4357 203.697 55.5509 203.028 55.8063C203.586 54.3641 204.044 53.2573 204.436 52.1256C204.587 51.6899 204.702 51.1741 204.612 50.7385C204.27 49.0559 203.139 48.3398 201.535 48.9457C199.564 49.6868 197.673 50.6233 195.582 51.5447C195.547 50.9989 195.632 50.4981 195.461 50.0975C195.089 49.2111 194.662 48.3297 194.129 47.5335C193.676 46.8525 192.967 46.3367 192.51 45.6606C191.851 44.6891 190.795 44.3586 190.458 45.23C189.845 46.8174 188.568 47.4784 187.301 48.2697C187.08 48.4099 186.929 48.6703 186.678 48.9507C187.055 49.1861 187.346 49.3663 187.673 49.5717C187.557 49.8621 187.542 49.9723 187.482 50.0374C182.962 54.98 177.753 59.0713 171.951 62.4065C171.519 62.6519 170.84 62.4265 170.317 62.5717C169.809 62.7119 169.06 62.9423 168.924 63.3179C168.407 64.7401 169.709 66.0371 171.187 65.6465C171.83 65.4762 172.484 65.2358 173.062 64.9103C179.699 61.1245 185.692 56.5274 190.841 50.8737C191.233 50.443 191.746 50.1125 192.203 49.7369C192.324 49.8521 192.444 49.9723 192.565 50.0875C192.429 50.413 192.374 50.8136 192.143 51.059C190.021 53.3375 187.899 55.621 185.707 57.8294C184.827 58.7108 183.746 59.3918 182.791 60.2031C181.821 61.0243 181.635 62.121 182.298 62.7921C183.319 63.8287 183.656 63.7586 184.878 62.5567C189.166 58.3452 194.224 55.2654 199.634 52.7165C199.946 52.5713 200.318 52.5563 201.017 52.406C200.61 53.2624 200.378 53.8182 200.082 54.339C199.152 55.9715 198.201 57.594 197.256 59.2165C196.658 60.2431 197.241 60.9392 197.925 61.6153C198.669 62.3564 199.237 61.8156 199.815 61.3699C200.388 60.9292 200.921 60.4334 201.52 60.0228C202.872 59.0914 204.245 58.2 205.612 57.2936C205.693 57.3887 205.768 57.4789 205.849 57.574C205.205 58.5706 204.541 59.5571 203.918 60.5636C203.455 61.3098 203.209 61.9808 204.204 62.6468C205.205 63.3179 205.652 62.5868 206.13 62.071C207.608 60.4835 209.036 58.846 210.454 57.1984C211.052 56.5074 211.817 55.8213 212.058 55C212.279 54.2489 212.093 53.2273 211.731 52.5012C211.279 51.6098 210.414 52.0154 209.705 52.401Z" fill="#DCD2C7"/>
<path d="M329.773 57.3486C327.812 57.3486 325.967 57.3185 324.122 57.3536C320.361 57.4337 316.6 57.5739 312.84 57.629C312.03 57.639 311.16 57.5439 310.421 57.2534C309.828 57.0181 309.129 56.4923 308.933 55.9364C308.666 55.1752 309.008 54.4942 309.893 53.9584C312.256 52.5312 312.789 49.5866 310.818 47.859C309.823 46.9876 308.093 46.5319 306.726 46.587C301.155 46.8173 296.871 49.9121 292.819 53.3574C291.979 54.0735 291.135 54.8297 290.491 55.7111C289.455 57.1283 289.46 58.4653 290.28 59.4418C291.195 60.5335 292.366 60.7388 294.071 59.9276C297.379 58.3501 300.647 56.6976 303.94 55.0951C304.478 54.8347 305.062 54.6645 305.75 54.404C305.791 54.9399 305.811 55.2654 305.841 55.5909C306.082 58.1198 307.329 59.9276 309.898 60.3833C311.733 60.7088 313.664 60.9091 315.504 60.7088C320.049 60.203 324.564 59.4068 329.1 58.7858C330.341 58.6105 330.015 58.0196 329.773 57.3486ZM305.338 51.795C301.854 54.0285 298.088 55.696 293.96 56.6425C295.081 54.6194 296.947 53.3474 298.867 52.3509C301.411 51.0288 304.162 50.0974 306.831 49.0157C307.133 48.8956 307.505 48.8305 307.822 48.8755C308.415 48.9657 309.295 48.9857 309.501 49.3513C309.758 49.7919 309.441 50.5581 309.365 51.2442C307.198 50.4329 307.279 50.5531 305.338 51.795Z" fill="#DCD2C7"/>
<path d="M308.239 39.396C312.739 37.4631 317.45 35.9307 322.197 34.7288C323.69 34.3482 324.002 33.4268 324.816 32.6606C308.752 34.6387 294.901 41.4843 282.261 51.8703C282.577 50.8036 282.879 50.1326 282.96 49.4415C283.075 48.5051 283.221 47.4885 282.975 46.6172C282.809 46.0263 281.984 45.6206 281.451 45.1299C281.049 45.6507 280.511 46.1114 280.27 46.6973C279.691 48.1145 279.254 49.5918 278.756 51.044C278.088 53.002 277.379 54.945 276.76 56.9181C276.368 58.16 277.218 59.0564 278.123 59.462C278.535 59.6473 279.611 58.9262 280.064 58.3603C283.764 53.7482 288.214 49.9423 293.257 46.9727C298.073 44.1283 303.106 41.5994 308.239 39.396Z" fill="#DCD2C7"/>
<path d="M117.474 54.4391C117.474 54.4341 117.479 54.4291 117.479 54.4241C117.474 54.4241 117.469 54.4241 117.469 54.4241C117.469 54.4241 117.474 54.4391 117.474 54.4391Z" fill="#DCD2C7"/>
<path d="M214.867 43.6475C215.732 43.6475 216.904 42.1302 217.13 40.8181C216.517 40.3424 215.968 39.6563 215.275 39.441C214.46 39.1856 213.444 40.8131 213.49 42.1452C213.52 43.0215 213.907 43.6525 214.867 43.6475Z" fill="#DCD2C7"/>
</g>
<defs>
<clipPath id="clip0">
<rect width="330" height="81" fill="white"/>
</clipPath>
</defs>
</svg>
