<svg width="40" height="40" viewBox="0 0 40 40" fill="none" xmlns="http://www.w3.org/2000/svg">
<rect width="40" height="40" rx="10" fill="black"/>
<path d="M16.4869 20.4561C14.5273 20.4561 12.9441 22.0393 12.973 23.9796C12.9924 25.2249 13.6778 26.3061 14.6865 26.9095C14.3438 26.3834 14.1411 25.7607 14.1315 25.0898C14.1025 23.1494 15.6857 21.5663 17.6453 21.5663C18.0315 21.5663 18.4031 21.629 18.7506 21.74V17.8545C18.3886 17.8014 18.017 17.7725 17.6453 17.7725C17.626 17.7725 17.6115 17.7725 17.5922 17.7725V20.6299C17.2447 20.5189 16.873 20.4561 16.4869 20.4561Z" fill="#F00044"/>
<path d="M24.9567 8.80469H24.9278H23.9238C24.2134 10.2575 25.0291 11.5221 26.1683 12.3813C25.4201 11.3918 24.9664 10.1562 24.9567 8.80469Z" fill="#F00044"/>
<path d="M30.8646 14.7175C30.4833 14.7175 30.1165 14.6789 29.7545 14.6113V17.3964C28.4416 17.3964 27.1673 17.1405 25.9703 16.6289C25.198 16.3007 24.4788 15.8808 23.8176 15.374L23.8369 23.9607C23.8272 25.8914 23.0646 27.7014 21.6842 29.0674C20.5595 30.1775 19.1356 30.8871 17.5911 31.1139C17.2291 31.167 16.8574 31.196 16.4858 31.196C14.835 31.196 13.2615 30.6602 11.9824 29.6707C12.1272 29.8445 12.2817 30.0134 12.4506 30.1775C13.8407 31.5483 15.6845 32.3061 17.649 32.3061C18.0207 32.3061 18.3923 32.2772 18.7543 32.2241C20.2989 31.9972 21.7228 31.2877 22.8474 30.1775C24.2278 28.8116 24.9905 27.0016 25.0001 25.0709L24.9277 16.4841C25.5842 16.9909 26.3033 17.4157 27.0804 17.7391C28.2823 18.2459 29.5566 18.5065 30.8646 18.5065" fill="#F00044"/>
<path d="M12.4363 19.9105C13.8119 18.5445 15.6412 17.7867 17.5912 17.7723V16.7442C17.2292 16.6911 16.8576 16.6621 16.4859 16.6621C14.5166 16.6621 12.668 17.4199 11.2779 18.8004C9.91189 20.1567 9.12996 22.0101 9.13479 23.936C9.13479 25.8763 9.90224 27.696 11.2875 29.0716C11.5095 29.2888 11.7364 29.4916 11.9777 29.675C10.8869 28.3766 10.2932 26.7548 10.2884 25.0461C10.2932 23.1203 11.0703 21.2668 12.4363 19.9105Z" fill="#08FFF9"/>
<path d="M29.7533 14.6108V13.5779H29.7437C28.4018 13.5779 27.1662 13.1338 26.1719 12.3809C27.0359 13.52 28.3005 14.3309 29.7533 14.6108Z" fill="#08FFF9"/>
<path d="M17.4464 28.5072C17.905 28.5313 18.3442 28.4686 18.7497 28.3383C20.1494 27.8797 21.1582 26.5765 21.1582 25.0416L21.163 19.2978V8.80448H23.9239C23.8515 8.44248 23.8129 8.07565 23.8081 7.69434H20.0046V18.1828L19.9998 23.9266C19.9998 25.4615 18.991 26.7648 17.5912 27.2233C17.1858 27.3584 16.7466 27.4212 16.288 27.3922C15.704 27.3584 15.1586 27.1847 14.6855 26.9047C15.2792 27.8218 16.2928 28.4445 17.4464 28.5072Z" fill="#08FFF9"/>
<path d="M17.591 31.1138C19.1356 30.887 20.5594 30.1775 21.6841 29.0673C23.0645 27.7013 23.8271 25.8913 23.8368 23.9606L23.8175 15.3739C24.4739 15.8807 25.1931 16.3054 25.9702 16.6288C27.1721 17.1356 28.4463 17.3963 29.7544 17.3963V14.6112C28.3015 14.3313 27.0369 13.5204 26.1729 12.3813C25.0338 11.5221 24.2133 10.2575 23.9285 8.80469H21.1628V19.2932L21.158 25.037C21.158 26.5719 20.1492 27.8751 18.7494 28.3336C18.344 28.4688 17.9047 28.5315 17.4462 28.5026C16.2878 28.4398 15.279 27.8172 14.6853 26.9049C13.6765 26.3064 12.9911 25.2204 12.9718 23.9751C12.9429 22.0348 14.526 20.4516 16.4857 20.4516C16.8718 20.4516 17.2435 20.5143 17.591 20.6254V17.7679C15.641 17.7824 13.8117 18.5402 12.4361 19.9062C11.0701 21.2625 10.2882 23.1159 10.293 25.037C10.293 26.7457 10.8867 28.3674 11.9823 29.6658C13.2663 30.6553 14.8349 31.1911 16.4857 31.1911C16.8573 31.1959 17.229 31.1669 17.591 31.1138Z" fill="white"/>
</svg>
