<svg width="32" height="32" viewBox="0 0 32 32" fill="none" xmlns="http://www.w3.org/2000/svg">
<g clip-path="url(#clip0)">
<path d="M19.2019 0H12.801C6.62448 0 1.59961 5.02488 1.59961 11.2014V16.0021C1.59961 20.3384 4.10048 24.2736 8.00042 26.1246V31.4707C8.00042 31.9349 8.58111 32.1776 8.91098 31.8479L13.5553 27.2035H19.2018C25.3783 27.2035 30.4032 22.1786 30.4032 16.0021V11.2014C30.4032 5.02488 25.3783 0 19.2019 0Z" fill="#584EA0"/>
<path d="M24.0535 19.8813L23.574 17.2834C23.5343 17.0688 23.368 16.9 23.154 16.8572L19.3823 16.1029C19.2071 16.068 19.0266 16.1227 18.9004 16.2487L17.3681 17.7811C14.7864 16.6243 13.3535 15.1883 12.0928 12.4957L13.6201 10.9684C13.7462 10.8423 13.801 10.6614 13.766 10.4865L13.0117 6.7148C12.9689 6.50086 12.8001 6.33448 12.5854 6.29486L9.98757 5.81536C9.91645 5.8023 9.8432 5.80367 9.77257 5.81973C9.08664 5.97555 8.46076 6.32117 7.96257 6.81948C7.09995 7.68211 6.77026 8.94086 7.00926 10.4597C7.41045 13.01 8.65995 16.5593 10.9653 18.8739L10.9968 18.9051C13.3095 21.2088 16.8588 22.4584 19.4093 22.8597C19.7306 22.9103 20.0401 22.9354 20.3368 22.9354C21.4428 22.9354 22.3693 22.5865 23.0496 21.9063C23.5478 21.408 23.8936 20.7822 24.0493 20.0964C24.0651 20.0257 24.0666 19.9525 24.0535 19.8813Z" fill="white"/>
<path d="M13.0977 11.4899L13.6192 10.9683L13.6198 10.9678L13.0977 11.4898L13.0977 11.4899Z" fill="#E5E5E5"/>
<path d="M18.8997 16.2482L18.373 16.7748L18.3731 16.7749L18.8997 16.2483L18.8997 16.2482Z" fill="#E5E5E5"/>
<path d="M17.0646 9.06787C16.7701 9.06787 16.5312 9.30668 16.5312 9.60125C16.5312 9.89581 16.7701 10.1346 17.0646 10.1346C18.2411 10.1346 19.1982 11.0917 19.1982 12.2682C19.1982 12.5589 19.441 12.8016 19.7316 12.8016C20.0222 12.8016 20.265 12.5589 20.265 12.2682C20.2651 10.5035 18.8294 9.06787 17.0646 9.06787Z" fill="white"/>
<path d="M17.0669 6.9342C16.8696 6.9342 16.6705 6.94514 16.475 6.9667C16.1821 6.99902 15.971 7.26258 16.0033 7.55545C16.0356 7.84833 16.2997 8.05895 16.592 8.02714C16.7488 8.00983 16.9085 8.00102 17.0669 8.00102C19.4198 8.00102 21.3341 9.91526 21.3341 12.2682C21.3341 12.4266 21.3253 12.5864 21.3079 12.7431C21.2761 13.0319 21.4907 13.3001 21.7796 13.3319C22.0685 13.3637 22.3364 13.1491 22.3684 12.8602C22.3899 12.6647 22.4009 12.4656 22.4009 12.2682C22.4009 9.32707 20.0081 6.9342 17.0669 6.9342Z" fill="white"/>
<path d="M17.0669 4.80066C16.8762 4.80066 16.6832 4.80791 16.4932 4.82235C16.1994 4.8446 15.9793 5.10085 16.0015 5.39453C16.0237 5.68828 16.2809 5.90841 16.5737 5.88616C16.737 5.87372 16.903 5.86747 17.0669 5.86747C20.5963 5.86747 23.4677 8.73885 23.4677 12.2683C23.4677 12.7677 23.41 13.2648 23.2964 13.7458C23.2312 14.0214 23.401 14.3079 23.6743 14.3828C23.9619 14.4615 24.2661 14.2812 24.3346 13.9912C24.4672 13.4298 24.5345 12.8502 24.5345 12.2683C24.5345 8.1506 21.1845 4.80066 17.0669 4.80066Z" fill="white"/>
</g>
<defs>
<clipPath id="clip0">
<rect width="32" height="32" fill="white"/>
</clipPath>
</defs>
</svg>
